<svg aria-hidden="true" style="position: absolute; width: 0; height: 0; overflow: hidden;" version="1.1" xmlns="http://www.w3.org/2000/svg" xmlns:xlink="http://www.w3.org/1999/xlink">
<defs>
<symbol id="icon-Android" viewBox="0 0 32 32">
<title>Android</title>
<path fill="#000" style="fill: var(--color2, #000)" d="M21.553 0c0.163 0.16 0.16 0.324 0.052 0.521-0.405 0.735-0.791 1.48-1.2 2.214-0.092 0.164-0.062 0.232 0.090 0.312 1.324 0.713 2.401 1.73 3.165 2.962l0.020 0.035c0.715 1.151 1.069 2.41 1.121 3.759 0.005 0.136-0.031 0.212-0.181 0.203-0.076-0.005-0.153 0-0.229 0h-16.962c-0.351 0-0.357 0-0.341-0.345 0.082-1.864 0.799-3.465 2.034-4.847 0.639-0.709 1.393-1.3 2.236-1.746l0.044-0.021c0.153-0.080 0.181-0.15 0.090-0.312-0.404-0.727-0.787-1.462-1.186-2.192-0.11-0.201-0.141-0.374 0.040-0.543h0.255c0.113 0.187 0.232 0.374 0.338 0.565 0.348 0.63 0.696 1.262 1.032 1.898 0.093 0.175 0.171 0.206 0.374 0.138 0.608-0.207 1.22-0.429 1.849-0.545 1.726-0.317 3.427-0.195 5.082 0.429 0.549 0.207 0.544 0.191 0.828-0.333 0.391-0.722 0.798-1.433 1.199-2.152zM12.641 6.061c0 0 0-0 0-0 0-0.41-0.33-0.743-0.74-0.748h-0c-0.397 0.007-0.716 0.33-0.716 0.728 0 0.003 0 0.006 0 0.009v-0c0 0.402 0.32 0.743 0.707 0.748 0.409-0.002 0.74-0.329 0.749-0.736v-0.001zM20.71 6.054c0-0.002 0-0.005 0-0.008 0-0.398-0.318-0.722-0.714-0.731l-0.001-0c-0.409 0.002-0.74 0.334-0.74 0.743 0 0.41 0.333 0.743 0.743 0.743 0.001 0 0.002 0 0.003 0h-0c0.395-0.017 0.709-0.342 0.709-0.739 0-0.003 0-0.005-0-0.008v0z"></path>
<path fill="#fff" style="fill: var(--color1, #fff)" d="M21.299 0c-0.4 0.717-0.81 1.433-1.199 2.152-0.283 0.523-0.278 0.54-0.828 0.333-1.655-0.623-3.355-0.748-5.082-0.429-0.629 0.116-1.24 0.338-1.849 0.545-0.201 0.069-0.28 0.037-0.374-0.138-0.336-0.637-0.685-1.267-1.032-1.898-0.106-0.192-0.225-0.374-0.338-0.565z"></path>
<path fill="#000" style="fill: var(--color2, #000)" d="M15.962 10.696q4.241 0 8.482-0.004c0.224 0 0.304 0.046 0.304 0.291q-0.012 6.177-0.004 12.354c0 0.913-0.363 1.624-1.197 2.019-0.302 0.143-0.668 0.172-1.009 0.205-0.163 0.013-0.352 0.020-0.544 0.020-0.176 0-0.35-0.006-0.523-0.018l0.023 0.001c-0.212-0.010-0.274 0.062-0.273 0.272 0.009 1.308 0.005 2.617 0.004 3.925 0 0.541-0.138 1.028-0.492 1.46-0.721 0.882-2.199 0.9-2.948 0.034-0.366-0.423-0.51-0.905-0.509-1.45 0.003-1.316-0.004-2.632 0.006-3.948 0-0.217-0.045-0.297-0.279-0.292-0.705 0.016-1.409 0.012-2.114 0-0.209-0.003-0.275 0.058-0.274 0.272 0.009 1.325 0 2.649 0.006 3.974 0 0.677-0.225 1.231-0.759 1.669-0.776 0.634-2.016 0.525-2.666-0.239-0.362-0.425-0.498-0.915-0.498-1.457-0.007-1.316-0.020-2.632-0.020-3.948 0-0.209-0.058-0.274-0.272-0.275-0.543 0-1.092 0.020-1.625-0.062-0.806-0.121-1.64-0.912-1.629-2.164 0.017-1.978 0.004-3.957 0.004-5.935q0-3.171 0-6.342c0-0.362 0-0.362 0.351-0.362z"></path>
<path fill="#000" style="fill: var(--color2, #000)" d="M25.512 16.394q0-1.986 0-3.973c0-0.659 0.21-1.216 0.738-1.653 0.889-0.738 2.348-0.484 2.921 0.518 0.169 0.3 0.269 0.659 0.269 1.042 0 0.020-0 0.039-0.001 0.058l0-0.003c0 2.683-0.010 5.365 0.006 8.047 0.009 1.495-1.354 2.417-2.657 1.939-0.737-0.27-1.184-0.835-1.246-1.62-0.055-0.7-0.027-1.408-0.031-2.112-0.004-0.749 0.001-1.496 0.001-2.243z"></path>
<path fill="#000" style="fill: var(--color2, #000)" d="M6.385 16.439q0 1.973 0 3.947c0 0.839-0.307 1.521-1.080 1.901-1.288 0.634-2.67-0.229-2.816-1.463-0.020-0.183-0.032-0.396-0.032-0.611 0-0.026 0-0.052 0.001-0.078l-0 0.004q-0.003-3.832 0-7.663c0-0.561 0.132-1.062 0.513-1.499 0.748-0.855 2.201-0.838 2.928 0.034 0.352 0.422 0.49 0.9 0.49 1.433q-0.004 1.998-0.004 3.997z"></path>
<path fill="#fff" style="fill: var(--color1, #fff)" d="M12.641 6.061c-0.007 0.409-0.338 0.738-0.747 0.74h-0c-0.387-0.006-0.71-0.347-0.707-0.748-0-0.002-0-0.005-0-0.008 0-0.398 0.319-0.721 0.715-0.728h0.001c0.408 0.005 0.737 0.336 0.739 0.744v0z"></path>
<path fill="#fff" style="fill: var(--color1, #fff)" d="M20.71 6.054c0 0.002 0 0.005 0 0.008 0 0.398-0.314 0.722-0.707 0.739l-0.002 0c-0.001 0-0.002 0-0.003 0-0.41 0-0.743-0.333-0.743-0.743s0.331-0.742 0.74-0.743h0c0.397 0.009 0.715 0.333 0.715 0.731 0 0.003 0 0.005-0 0.008v-0z"></path>
</symbol>
<symbol id="icon-Angular2" viewBox="0 0 30 32">
<title>Angular2</title>
<path fill="#656565" style="fill: var(--color3, #656565)" d="M30.237 5.222c-0.016 0.15-0.029 0.284-0.045 0.418q-0.163 1.359-0.327 2.719c-0.087 0.712-0.176 1.423-0.262 2.133-0.104 0.866-0.205 1.733-0.309 2.599-0.096 0.797-0.194 1.593-0.29 2.39q-0.171 1.419-0.341 2.838c-0.063 0.528-0.129 1.055-0.193 1.583-0.067 0.558-0.132 1.116-0.199 1.674-0.063 0.538-0.132 1.075-0.198 1.613-0.063 0.513-0.125 1.026-0.183 1.539-0.004 0.103-0.065 0.19-0.153 0.231l-0.002 0.001q-1.255 0.69-2.503 1.383l-9.385 5.203c-0.193 0.107-0.388 0.21-0.578 0.322-0.033 0.023-0.074 0.036-0.118 0.036s-0.085-0.014-0.119-0.037l0.001 0q-1.62-0.896-3.243-1.785l-4.234-2.326q-2.466-1.352-4.935-2.707c-0.084-0.041-0.143-0.124-0.147-0.221l-0-0.001q-0.107-0.941-0.221-1.882-0.182-1.509-0.366-3.017-0.179-1.479-0.356-2.958c-0.085-0.707-0.173-1.414-0.258-2.121q-0.188-1.568-0.376-3.136-0.188-1.546-0.376-3.092-0.146-1.202-0.288-2.405c-0.031-0.264-0.063-0.528-0.095-0.792-0.001-0.017-0.002-0.038-0.002-0.058s0.001-0.041 0.002-0.061l-0 0.003c0.162-0.058 0.326-0.119 0.491-0.176q2.853-1.004 5.708-2.007 2.214-0.779 4.427-1.561 2.129-0.753 4.257-1.5c0.034-0.013 0.074-0.021 0.116-0.021s0.082 0.008 0.118 0.022l-0.002-0.001q1.187 0.41 2.376 0.815l10.601 3.639q0.925 0.318 1.849 0.639c0.048 0.020 0.094 0.039 0.158 0.063zM15.095 1.698l-0.29 0.103q-1.9 0.676-3.8 1.352l-4.564 1.631q-2.027 0.723-4.055 1.443c-0.161 0.057-0.321 0.116-0.482 0.172-0.050 0.010-0.087 0.053-0.087 0.105 0 0.011 0.002 0.022 0.005 0.032l-0-0.001c0.014 0.084 0.012 0.17 0.022 0.255q0.117 1.016 0.236 2.032c0.053 0.459 0.104 0.916 0.157 1.375q0.071 0.612 0.144 1.225l0.171 1.464c0.043 0.364 0.086 0.727 0.125 1.091 0.055 0.488 0.107 0.977 0.164 1.465 0.063 0.553 0.133 1.105 0.196 1.658 0.067 0.578 0.125 1.156 0.194 1.734s0.137 1.146 0.206 1.716c0.063 0.548 0.125 1.096 0.188 1.644 0.063 0.558 0.137 1.115 0.196 1.673 0.002 0.108 0.066 0.201 0.158 0.245l0.002 0.001c0.467 0.251 0.932 0.512 1.397 0.77q1.145 0.636 2.288 1.273 1.487 0.824 2.976 1.646 2.158 1.197 4.314 2.398c0.041 0.029 0.093 0.046 0.148 0.046 0.053 0 0.102-0.016 0.143-0.043l-0.001 0.001c0.497-0.283 0.999-0.556 1.5-0.833q1.627-0.899 3.254-1.797 1.744-0.966 3.488-1.934 1.468-0.815 2.938-1.622c0.077-0.035 0.13-0.109 0.136-0.196l0-0.001c0.046-0.403 0.1-0.806 0.15-1.209 0.063-0.517 0.125-1.035 0.188-1.552 0.066-0.528 0.135-1.054 0.202-1.581 0.068-0.542 0.136-1.085 0.204-1.627 0.049-0.388 0.102-0.775 0.15-1.164 0.077-0.622 0.151-1.245 0.228-1.866 0.063-0.528 0.134-1.054 0.201-1.581s0.134-1.066 0.202-1.596c0.051-0.398 0.103-0.796 0.152-1.192 0.077-0.622 0.151-1.245 0.228-1.866 0.087-0.69 0.176-1.38 0.263-2.074 0.020-0.159 0.018-0.159-0.134-0.211l-10.298-3.517c-0.427-0.146-0.856-0.289-1.283-0.435l-1.794-0.613c-0.038-0.013-0.077-0.022-0.126-0.036z"></path>
<path fill="#010101" style="fill: var(--color4, #010101)" d="M15.095 1.698c0.049 0.014 0.088 0.023 0.125 0.036l1.794 0.613c0.427 0.146 0.855 0.29 1.283 0.435l10.299 3.513c0.152 0.052 0.154 0.053 0.134 0.211-0.087 0.69-0.177 1.38-0.263 2.074-0.078 0.622-0.151 1.245-0.228 1.866-0.050 0.398-0.102 0.796-0.152 1.192q-0.101 0.799-0.202 1.596c-0.067 0.528-0.136 1.054-0.201 1.581-0.077 0.622-0.151 1.245-0.228 1.866-0.048 0.388-0.101 0.776-0.15 1.164-0.068 0.542-0.136 1.085-0.204 1.627-0.067 0.528-0.136 1.054-0.202 1.581-0.063 0.517-0.125 1.035-0.188 1.552-0.050 0.403-0.104 0.805-0.15 1.209-0.006 0.087-0.060 0.161-0.135 0.196l-0.001 0.001q-1.473 0.812-2.942 1.625-1.744 0.966-3.488 1.934-1.626 0.9-3.254 1.797c-0.502 0.277-1.004 0.55-1.5 0.833-0.040 0.027-0.089 0.043-0.142 0.043-0.055 0-0.107-0.017-0.149-0.047l0.001 0.001q-2.155-1.202-4.314-2.398-1.487-0.825-2.976-1.646-1.145-0.635-2.288-1.273c-0.465-0.258-0.93-0.517-1.397-0.77-0.093-0.045-0.157-0.137-0.159-0.245v-0c-0.058-0.558-0.131-1.115-0.196-1.673-0.063-0.548-0.125-1.096-0.188-1.644-0.067-0.573-0.137-1.145-0.203-1.717s-0.125-1.156-0.194-1.734c-0.063-0.553-0.132-1.105-0.196-1.658-0.056-0.488-0.109-0.977-0.164-1.465-0.041-0.364-0.085-0.727-0.125-1.091l-0.171-1.464q-0.072-0.612-0.144-1.226c-0.053-0.459-0.104-0.916-0.157-1.375q-0.117-1.016-0.236-2.032c-0.010-0.085-0.008-0.171-0.022-0.255-0.003-0.009-0.005-0.020-0.005-0.031 0-0.052 0.037-0.095 0.086-0.105l0.001-0c0.161-0.056 0.321-0.115 0.482-0.172q2.027-0.722 4.055-1.443l4.564-1.631q1.899-0.677 3.8-1.352zM15.061 2.837c-0.009 0.023-0.016 0.048-0.027 0.070l-3.204 7.128q-1.048 2.33-2.094 4.661-1.085 2.412-2.17 4.824-0.749 1.665-1.497 3.331c-0.075 0.167-0.149 0.336-0.229 0.518 0.037 0.006 0.082 0.010 0.128 0.012l0.002 0c0.135-0.004 0.27-0.013 0.405-0.016q0.646-0.014 1.293-0.024 0.729-0.013 1.458-0.025c0.152 0 0.152 0 0.207-0.136q0.453-1.129 0.905-2.258 0.424-1.061 0.847-2.122c0.026-0.052 0.054-0.096 0.085-0.137l-0.002 0.002c0.070 0.004 0.14 0.011 0.21 0.010q2.017-0.004 4.033-0.011 1.52 0 3.040 0c0.286 0 0.572 0.004 0.858 0 0.008-0.001 0.017-0.002 0.027-0.002 0.089 0 0.164 0.058 0.189 0.138l0 0.001c0.324 0.762 0.655 1.52 0.983 2.28 0.31 0.718 0.621 1.436 0.927 2.157 0.026 0.090 0.108 0.155 0.205 0.155 0.006 0 0.012-0 0.018-0.001l-0.001 0c0.667 0.006 1.334 0.019 2 0.032 0.314 0.006 0.631 0.018 0.947 0.026 0.052 0 0.105-0.008 0.18-0.013-0.030-0.072-0.050-0.121-0.072-0.169q-0.627-1.35-1.261-2.697-0.708-1.512-1.419-3.025-0.766-1.64-1.534-3.275-0.798-1.703-1.597-3.406-0.736-1.573-1.477-3.146-0.613-1.308-1.224-2.617-0.45-0.961-0.9-1.921-0.077-0.164-0.156-0.326c-0.019-0.040-0.041-0.072-0.085-0.018z"></path>
<path fill="#656565" style="fill: var(--color3, #656565)" d="M15.061 2.837c0.041-0.054 0.063-0.021 0.085 0.018q0.080 0.162 0.156 0.326 0.45 0.96 0.9 1.921 0.612 1.308 1.224 2.617 0.738 1.574 1.478 3.146 0.8 1.702 1.596 3.405 0.767 1.635 1.532 3.27 0.709 1.512 1.419 3.025 0.632 1.349 1.261 2.697c0.023 0.048 0.041 0.098 0.072 0.169-0.075 0.006-0.125 0.014-0.18 0.013-0.314-0.008-0.631-0.019-0.947-0.026-0.667-0.013-1.334-0.026-2-0.032-0.005 0-0.011 0.001-0.018 0.001-0.097 0-0.179-0.065-0.205-0.154l-0-0.002c-0.306-0.72-0.617-1.438-0.927-2.157-0.328-0.76-0.659-1.519-0.983-2.28-0.027-0.080-0.101-0.137-0.189-0.137-0.010 0-0.020 0.001-0.030 0.002l0.001-0c-0.286 0.005-0.572 0-0.858 0q-1.52 0-3.040 0-2.017 0.004-4.033 0.011c-0.070 0-0.14-0.007-0.21-0.010 0.070-0.004 0.139-0.013 0.209-0.013h3.491c0.068 0 0.136-0.008 0.22-0.013 0-0.080 0-0.144 0-0.208q0.011-1.248 0.023-2.497c0.1 0 0.2-0.004 0.3-0.004h2.705c0.042 0 0.083-0.009 0.142-0.015-0.067-0.146-0.125-0.273-0.183-0.398q-0.551-1.153-1.103-2.305-0.815-1.702-1.627-3.404c-0.072-0.149-0.152-0.292-0.229-0.439 0-0.13-0.006-0.259-0.006-0.389q0-0.711 0.003-1.421c0.013-0.050 0.023-0.11 0.027-0.172l0-0.004q0-1.42 0-2.84c-0.005-0.065-0.015-0.125-0.029-0.183l0.002 0.008c-0.009-0.088-0.026-0.177-0.026-0.265-0.003-0.363 0-0.727 0-1.090-0.005-0.065-0.015-0.124-0.028-0.182l0.002 0.008z"></path>
<path fill="#fff" style="fill: var(--color1, #fff)" d="M15.116 7.559q0 0.711-0.003 1.421c0 0.13 0.004 0.259 0.006 0.389-0.081 0.188-0.162 0.376-0.242 0.565q-0.676 1.6-1.351 3.199-0.558 1.323-1.114 2.646c-0.016 0.038-0.026 0.080-0.043 0.136h0.188q1.192 0 2.378 0c0.060 0 0.119 0.010 0.178 0.016q-0.012 1.248-0.023 2.497c0 0.063 0 0.125 0 0.208-0.084 0.005-0.152 0.013-0.22 0.013h-3.491c-0.070 0-0.139 0.008-0.209 0.013-0.030 0.039-0.057 0.083-0.081 0.13l-0.002 0.005q-0.425 1.060-0.847 2.122-0.452 1.129-0.905 2.258c-0.055 0.136-0.055 0.134-0.207 0.136q-0.729 0.011-1.458 0.025-0.646 0.012-1.293 0.024c-0.135 0-0.27 0.012-0.405 0.016-0.048-0.002-0.092-0.006-0.136-0.013l0.007 0.001c0.080-0.183 0.154-0.351 0.229-0.518q0.748-1.665 1.497-3.331 1.085-2.412 2.17-4.824 1.048-2.33 2.094-4.661l3.205-7.128c0.010-0.023 0.018-0.047 0.027-0.070 0.011 0.049 0.020 0.109 0.025 0.169l0 0.004c0 0.363 0 0.727 0 1.090 0 0.088 0.017 0.177 0.026 0.265 0 0.050-0.008 0.1-0.008 0.15q0 1.443 0 2.89c0.002 0.053 0.006 0.103 0.009 0.156z"></path>
<path fill="#010101" style="fill: var(--color4, #010101)" d="M15.111 15.93c-0.060-0.006-0.119-0.016-0.178-0.016q-1.192 0-2.378 0h-0.188c0.018-0.056 0.028-0.098 0.043-0.136q0.556-1.324 1.114-2.646 0.674-1.6 1.351-3.199c0.080-0.188 0.161-0.376 0.242-0.565 0.077 0.146 0.158 0.29 0.229 0.439q0.815 1.701 1.627 3.404 0.551 1.152 1.103 2.305c0.063 0.125 0.116 0.251 0.183 0.398-0.059 0.006-0.101 0.015-0.142 0.015h-2.704c-0.1-0.003-0.201-0.001-0.3 0.001z"></path>
<path fill="#545454" style="fill: var(--color5, #545454)" d="M15.116 7.559c0-0.050-0.007-0.1-0.007-0.15q0-1.443 0-2.89c0-0.050 0.005-0.1 0.008-0.15 0.013 0.051 0.023 0.11 0.027 0.172l0 0.004q0 1.42 0 2.84c-0.005 0.065-0.015 0.125-0.030 0.183l0.002-0.008z"></path>
</symbol>
<symbol id="icon-Artistic" viewBox="0 0 24 32">
<title>Artistic</title>
<path fill="#030303" style="fill: var(--color7, #030303)" d="M0 16.248c0.053-0.173 0.104-0.346 0.159-0.518 0.25-0.77 0.706-1.408 1.256-1.985 0.221-0.233 0.515-0.207 0.791-0.164 0.27 0.055 0.501 0.12 0.724 0.199l-0.037-0.011c0.306 0.092 0.57-0.020 0.663-0.287s-0.012-0.5-0.308-0.621c-0.588-0.245-1.194-0.355-1.828-0.201-0.432-0.985 0.203-2.091 1.32-2.805-0.013 0.204-0.030 0.386-0.036 0.568-0.011 0.342 0.2 0.6 0.49 0.608s0.484-0.199 0.504-0.55 0.047-0.707 0.047-1.063c0-0.644 0.335-1.054 0.892-1.301 0.989-0.438 2.276-0.139 3.023 0.701 0.219 0.242 0.431 0.504 0.628 0.778l0.018 0.027c0.066 0.109 0.105 0.24 0.105 0.381 0 0.008-0 0.016-0 0.024l0-0.001q0.008 6.622 0.004 13.244c0 1.136-1.133 1.972-2.211 1.616-0.319-0.106-0.595-0.243-0.848-0.413l0.012 0.008c-0.142-0.103-0.319-0.165-0.512-0.165-0.056 0-0.111 0.005-0.164 0.015l0.005-0.001c-0.599 0.091-1.273-0.082-1.706-0.418 0.213-0.606 0.75-0.896 1.443-0.772 0.102 0.018 0.201 0.052 0.301 0.078 0.313 0.079 0.563-0.044 0.648-0.319 0.084-0.263-0.031-0.519-0.319-0.625-0.875-0.318-2.125-0.226-2.772 0.794-0.027 0.043-0.057 0.086-0.085 0.125-0.763-0.49-0.841-1.35-0.438-2.004 0.125-0.205 0.193-0.421 0.033-0.604-0.112-0.118-0.268-0.195-0.442-0.203l-0.002-0c-0.125 0-0.294 0.125-0.362 0.238-0.179 0.308-0.313 0.642-0.496 1.024l-0.506-1.081v-1.063l0.258-0.731c0.347 0.109 0.675 0.242 1.016 0.313 0.633 0.134 1.263 0.146 1.833-0.234 0.25-0.166 0.304-0.443 0.155-0.678s-0.381-0.283-0.654-0.166c-0.178 0.076-0.369 0.165-0.555 0.169-0.017 0-0.037 0.001-0.057 0.001-0.571 0-1.097-0.199-1.51-0.531l0.005 0.004c-0.24-0.192-0.298-0.612-0.438-0.928-0.007-0.015-0.031-0.023-0.048-0.033zM6.151 15.050c-0.141 0.339-0.201 0.666-0.388 0.886-0.27 0.318-0.62 0.573-0.957 0.826-0.264 0.198-0.375 0.446-0.243 0.688s0.421 0.321 0.708 0.2c1.062-0.468 1.789-1.512 1.789-2.725 0-0.014-0-0.027-0-0.040l0 0.002c0.010-0.106 0.060-0.198 0.135-0.263l0-0c0.204-0.176 0.442-0.313 0.636-0.5 0.226-0.216 0.216-0.493 0.014-0.691s-0.468-0.161-0.705-0.005c-0.303 0.209-0.649 0.399-1.015 0.552l-0.038 0.014c-0.264 0.102-0.57 0.1-0.859 0.13-0.323 0.034-0.551 0.244-0.55 0.524 0 0.291 0.222 0.484 0.571 0.476 0.259-0.006 0.518-0.039 0.901-0.071zM4.678 11.641c-0.014 0.259 0.095 0.46 0.34 0.533 0.261 0.077 0.471-0.043 0.59-0.287 0.063-0.129 0.092-0.276 0.149-0.408 0.245-0.569 0.709-0.834 1.321-0.756 0.154 0.020 0.304 0.063 0.457 0.091 0.296 0.063 0.523-0.040 0.592-0.262 0.017-0.047 0.027-0.101 0.027-0.157 0-0.219-0.147-0.403-0.347-0.46l-0.003-0.001c-0.22-0.075-0.478-0.131-0.743-0.158l-0.015-0.001c-1.17-0.114-2.304 0.786-2.366 1.866zM2.274 15.175c-0.41 0.118-0.891 0.229-1.35 0.401-0.253 0.094-0.313 0.352-0.221 0.608 0.079 0.221 0.404 0.375 0.625 0.273 0.698-0.316 1.392-0.25 2.095-0.027 0.344 0.108 0.614-0.023 0.696-0.318s-0.072-0.574-0.411-0.656c-0.44-0.107-0.89-0.177-1.433-0.281zM6.536 19.226c-0.072 0.058-0.27 0.14-0.337 0.283-0.178 0.381-0.353 0.778-0.433 1.188-0.119 0.608 0.014 1.181 0.493 1.625 0.229 0.212 0.529 0.209 0.728 0.009 0.22-0.22 0.228-0.519-0.011-0.741s-0.318-0.493-0.234-0.79c0.102-0.331 0.211-0.609 0.339-0.876l-0.017 0.039c0.157-0.365-0.051-0.743-0.528-0.737z"></path>
<path fill="#050505" style="fill: var(--color8, #050505)" d="M15.439 32c-0.271-0.161-0.397-0.419-0.511-0.701-0.353-0.875-0.728-1.741-1.083-2.615-0.056-0.138-0.125-0.341-0.068-0.438 0.096-0.156 0.286-0.328 0.452-0.346 0.143-0.016 0.389 0.137 0.451 0.278 0.459 1.032 0.889 2.077 1.316 3.125 0.131 0.32 0.015 0.486-0.433 0.7z"></path>
<path fill="#f9f9f9" style="fill: var(--color9, #f9f9f9)" d="M0 16.686c0.016 0.011 0.041 0.018 0.048 0.033 0.142 0.316 0.199 0.736 0.438 0.928 0.409 0.328 0.934 0.527 1.505 0.527 0.020 0 0.040-0 0.060-0.001l-0.003 0c0.188-0.004 0.375-0.093 0.555-0.169 0.273-0.117 0.506-0.067 0.654 0.166s0.092 0.512-0.155 0.678c-0.57 0.381-1.2 0.368-1.833 0.234-0.341-0.073-0.669-0.204-1.016-0.313l-0.253 0.729q0-1.406 0-2.813z"></path>
<path fill="#ede601" style="fill: var(--color10, #ede601)" d="M9.56 9.661c0.523-0.729 1.035-1.505 2-1.667 0.203-0.032 0.437-0.051 0.676-0.051 0.304 0 0.602 0.030 0.89 0.087l-0.029-0.005c0.487 0.089 0.848 0.441 1.014 0.927 0.088 0.258 0.25 0.409 0.481 0.534 0.655 0.354 1.268 0.764 1.704 1.389 0.452 0.647 0.478 1.336 0.181 2.043-0.203 0.484-0.209 0.516 0.152 0.901 0.575 0.613 1.066 1.278 1.259 2.116 0.137 0.6 0.079 1.172-0.313 1.675-0.175 0.223-0.206 0.438-0.067 0.706 0.249 0.479 0.395 1.046 0.395 1.647 0 0.154-0.010 0.306-0.028 0.456l0.002-0.018c-0.084 0.763-0.537 1.294-1.125 1.738-0.181 0.138-0.339 0.292-0.476 0.465l-0.004 0.005c-0.583 0.743-1.246 1.375-2.201 1.59-0.175 0.034-0.377 0.053-0.583 0.053-0.1 0-0.198-0.005-0.296-0.013l0.013 0.001c-0.25-0.014-0.444 0.063-0.667 0.175-0.409 0.209-0.848 0.419-1.295 0.477-0.688 0.088-1.141-0.34-1.468-0.909-0.063-0.107-0.129-0.21-0.194-0.313 0-0.135-0.008-0.27-0.009-0.405q-0.008-6.804-0.011-13.606zM13.323 18.444c0.037-0.028 0.070-0.059 0.101-0.091l0-0c0.5-0.675 1.019-1.34 1.493-2.034 0.149-0.219 0.219-0.514 0.254-0.784 0.053-0.418-0.14-0.756-0.45-0.875-0.375-0.147-0.692-0.036-0.949 0.258-0.116 0.132-0.215 0.278-0.33 0.428-0.255-0.238-0.423-0.423-0.618-0.573-0.431-0.331-0.966-0.195-1.193 0.297s-0.104 0.933 0.194 1.343c0.489 0.671 0.986 1.336 1.498 2.032z"></path>
<path fill="#050505" style="fill: var(--color8, #050505)" d="M22.19 25.444c-0.083-0.026-0.153-0.055-0.22-0.087l0.009 0.004q-1.401-0.743-2.799-1.491c-0.349-0.188-0.47-0.456-0.333-0.729 0.143-0.284 0.445-0.341 0.808-0.148q1.386 0.738 2.772 1.476c0.25 0.133 0.375 0.335 0.303 0.613-0.061 0.233-0.242 0.354-0.54 0.361z"></path>
<path fill="#050505" style="fill: var(--color8, #050505)" d="M23.549 13.977c-0.085 0.079-0.209 0.284-0.384 0.346-1.047 0.363-2.101 0.701-3.16 1.037-0.271 0.086-0.5-0.051-0.591-0.313s0.040-0.53 0.346-0.634c0.679-0.228 1.359-0.444 2.039-0.665 0.354-0.115 0.707-0.238 1.063-0.344s0.699 0.121 0.688 0.573z"></path>
<path fill="#050505" style="fill: var(--color8, #050505)" d="M10.126 3.927c0.008 0.216-0.169 0.441-0.465 0.458s-0.482-0.169-0.514-0.542c-0.078-0.911-0.14-1.823-0.209-2.735-0.013-0.176-0.035-0.352-0.044-0.528-0.014-0.292 0.176-0.508 0.453-0.524 0.298-0.017 0.497 0.144 0.521 0.45 0.087 1.098 0.166 2.196 0.258 3.421z"></path>
<path fill="#040404" style="fill: var(--color11, #040404)" d="M20.219 5.31c-0.112 0.168-0.168 0.326-0.28 0.409q-1.326 0.988-2.671 1.95c-0.258 0.188-0.554 0.129-0.714-0.106s-0.106-0.488 0.152-0.678c0.88-0.647 1.76-1.295 2.655-1.918 0.092-0.054 0.203-0.085 0.321-0.085 0.070 0 0.137 0.011 0.2 0.031l-0.005-0.001c0.134 0.045 0.215 0.238 0.343 0.398z"></path>
<path fill="#050505" style="fill: var(--color8, #050505)" d="M18.972 13.428c-0.125-0.111-0.342-0.219-0.388-0.375s0.019-0.438 0.14-0.545c0.394-0.336 0.829-0.671 1.28-0.985l0.055-0.036c0.084-0.067 0.192-0.107 0.309-0.107 0.277 0 0.501 0.224 0.501 0.501 0 0.159-0.075 0.302-0.191 0.393l-0.001 0.001c-0.448 0.355-0.906 0.696-1.366 1.034-0.070 0.050-0.171 0.061-0.34 0.119z"></path>
<path fill="#050505" style="fill: var(--color8, #050505)" d="M11.47 29.299c0.026-0.313 0.131-0.513 0.415-0.558s0.527 0.102 0.581 0.389c0.104 0.55 0.198 1.104 0.266 1.66 0.005 0.025 0.007 0.053 0.007 0.082 0 0.226-0.161 0.414-0.375 0.456l-0.003 0c-0.256 0.066-0.551-0.087-0.607-0.359-0.117-0.569-0.198-1.145-0.285-1.67z"></path>
<path fill="#050505" style="fill: var(--color8, #050505)" d="M16.145 26.828c0.169 0.104 0.322 0.161 0.423 0.267 0.358 0.375 0.702 0.769 1.043 1.163 0.214 0.247 0.194 0.554-0.031 0.75-0.21 0.183-0.503 0.152-0.719-0.085-0.357-0.393-0.73-0.775-1.050-1.197-0.101-0.133-0.113-0.395-0.063-0.566 0.043-0.133 0.247-0.214 0.396-0.332z"></path>
<path fill="#050505" style="fill: var(--color8, #050505)" d="M21.905 16.999c0.375-0.014 0.621 0.176 0.632 0.484 0.011 0.289-0.214 0.492-0.575 0.521-0.475 0.039-0.949 0.086-1.425 0.114-0.358 0.021-0.596-0.173-0.613-0.47s0.196-0.503 0.557-0.533q0.709-0.054 1.424-0.117z"></path>
<path fill="#050505" style="fill: var(--color8, #050505)" d="M19.381 27.148c-0.173-0.095-0.301-0.142-0.399-0.224-0.383-0.319-0.758-0.648-1.131-0.978-0.268-0.236-0.32-0.524-0.145-0.736 0.2-0.242 0.516-0.246 0.794-0.006 0.393 0.339 0.786 0.678 1.173 1.024 0.168 0.151 0.261 0.358 0.134 0.556-0.095 0.147-0.276 0.239-0.426 0.362z"></path>
<path fill="#060606" style="fill: var(--color12, #060606)" d="M18.37 9.748c-0.25-0.018-0.423-0.129-0.473-0.378s0.029-0.444 0.257-0.546c0.521-0.232 1.047-0.456 1.578-0.665 0.053-0.024 0.116-0.038 0.181-0.038 0.189 0 0.35 0.116 0.416 0.281l0.001 0.003c0.101 0.238 0.078 0.489-0.156 0.603-0.549 0.268-1.12 0.491-1.683 0.731-0.028 0.007-0.059 0.011-0.092 0.011-0.010 0-0.020-0-0.030-0.001l0.001 0z"></path>
<path fill="#050505" style="fill: var(--color8, #050505)" d="M6.944 2.193c0.072 0.063 0.261 0.161 0.339 0.313 0.244 0.479 0.451 0.976 0.661 1.471 0.125 0.293 0.033 0.542-0.215 0.659s-0.536 0.026-0.673-0.261c-0.231-0.486-0.455-0.975-0.66-1.472-0.152-0.368 0.067-0.711 0.548-0.711z"></path>
<path fill="#050505" style="fill: var(--color8, #050505)" d="M20.198 20.931c0.526 0.084 1.112 0.16 1.688 0.276 0.246 0.049 0.384 0.258 0.354 0.517-0.032 0.275-0.223 0.452-0.489 0.423-0.597-0.066-1.191-0.161-1.78-0.278-0.25-0.049-0.366-0.264-0.339-0.524 0.027-0.24 0.246-0.409 0.566-0.414z"></path>
<path fill="#060606" style="fill: var(--color12, #060606)" d="M11.567 3.709c0.089-0.563 0.169-1.125 0.271-1.688 0.041-0.216 0.229-0.377 0.454-0.377 0.028 0 0.056 0.003 0.082 0.007l-0.003-0c0.264 0.034 0.464 0.25 0.428 0.519q-0.114 0.846-0.275 1.688c-0.047 0.221-0.241 0.384-0.472 0.384-0.032 0-0.063-0.003-0.093-0.009l0.003 0c-0.244-0.048-0.403-0.259-0.395-0.524z"></path>
<path fill="#050505" style="fill: var(--color8, #050505)" d="M17.1 4.214c-0.078 0.174-0.111 0.286-0.173 0.375q-0.438 0.646-0.884 1.283c-0.194 0.276-0.453 0.334-0.694 0.17s-0.298-0.429-0.114-0.706c0.299-0.449 0.61-0.891 0.915-1.337 0.146-0.214 0.366-0.274 0.573-0.17 0.154 0.081 0.259 0.26 0.378 0.385z"></path>
<path fill="#d3cc05" style="fill: var(--color13, #d3cc05)" d="M9.56 9.661q0 6.802 0.004 13.604c0 0.135 0.006 0.27 0.009 0.405-0.024-0.094-0.068-0.188-0.068-0.281q-0.005-6.718 0-13.439c0.010-0.108 0.030-0.206 0.058-0.3l-0.003 0.011z"></path>
<path fill="#f9f9f9" style="fill: var(--color9, #f9f9f9)" d="M6.151 15.050c-0.384 0.032-0.641 0.063-0.9 0.072-0.349 0.009-0.569-0.184-0.571-0.476 0-0.281 0.227-0.49 0.55-0.524 0.289-0.031 0.595-0.028 0.859-0.13 0.403-0.167 0.75-0.356 1.072-0.578l-0.019 0.013c0.238-0.156 0.511-0.188 0.705 0.005s0.211 0.476-0.014 0.691c-0.194 0.188-0.432 0.323-0.636 0.5-0.075 0.065-0.126 0.158-0.136 0.262l-0 0.002c0 0.011 0 0.025 0 0.038 0 1.213-0.728 2.257-1.77 2.717l-0.019 0.008c-0.286 0.121-0.576 0.039-0.708-0.2s-0.022-0.489 0.243-0.688c0.338-0.25 0.688-0.508 0.957-0.826 0.186-0.221 0.246-0.548 0.387-0.886z"></path>
<path fill="#f9f9f9" style="fill: var(--color9, #f9f9f9)" d="M4.679 11.64c0.063-1.078 1.199-1.98 2.367-1.866 0.281 0.029 0.538 0.085 0.783 0.169l-0.025-0.007c0.204 0.058 0.35 0.242 0.35 0.461 0 0.056-0.010 0.111-0.028 0.161l0.001-0.003c-0.070 0.221-0.296 0.322-0.592 0.262-0.152-0.031-0.303-0.071-0.457-0.091-0.612-0.079-1.076 0.188-1.321 0.756-0.058 0.133-0.086 0.279-0.149 0.408-0.119 0.244-0.329 0.364-0.59 0.287-0.245-0.074-0.354-0.275-0.34-0.534z"></path>
<path fill="#f9f9f9" style="fill: var(--color9, #f9f9f9)" d="M2.275 15.175c0.543 0.104 0.993 0.175 1.434 0.281 0.339 0.082 0.494 0.358 0.411 0.656s-0.353 0.426-0.696 0.318c-0.703-0.221-1.396-0.289-2.095 0.027-0.223 0.101-0.546-0.053-0.625-0.273-0.093-0.257-0.032-0.514 0.221-0.608 0.458-0.172 0.939-0.283 1.349-0.401z"></path>
<path fill="#f9f9f9" style="fill: var(--color9, #f9f9f9)" d="M6.536 19.226c0.476-0.006 0.688 0.372 0.525 0.737-0.11 0.228-0.218 0.505-0.307 0.791l-0.012 0.046c-0.083 0.298-0.006 0.563 0.234 0.79s0.23 0.521 0.011 0.741c-0.198 0.199-0.5 0.203-0.728-0.009-0.478-0.444-0.611-1.017-0.493-1.625 0.081-0.409 0.254-0.806 0.433-1.188 0.067-0.142 0.264-0.225 0.337-0.283z"></path>
<path fill="#fcfcfa" style="fill: var(--color14, #fcfcfa)" d="M13.323 18.445c-0.512-0.694-1.010-1.361-1.5-2.035-0.298-0.41-0.418-0.858-0.194-1.343s0.762-0.625 1.193-0.297c0.195 0.15 0.364 0.334 0.618 0.573 0.115-0.151 0.214-0.296 0.33-0.428 0.257-0.294 0.574-0.405 0.949-0.258 0.313 0.122 0.504 0.46 0.45 0.875-0.034 0.27-0.104 0.563-0.254 0.784-0.473 0.694-0.991 1.359-1.493 2.034-0.030 0.035-0.063 0.066-0.098 0.094l-0.002 0.001z"></path>
</symbol>
<symbol id="icon-Bootstrap" viewBox="0 0 38 32">
<title>Bootstrap</title>
<path fill="#000" style="fill: var(--color2, #000)" d="M3.009 16.988c-0.063-0.149-0.197-0.275-0.095-0.471 0.027-0.053-0.074-0.161-0.084-0.247-0.111-0.923 0.233-1.656 0.944-2.233 0.012-0.011 0.023-0.022 0.033-0.034l0-0.001c-0.19-0.211-0.403-0.404-0.56-0.635-0.15-0.221-0.291-0.471-0.349-0.728-0.112-0.535-0.164-1.081 0.051-1.612 0.224-0.554 0.62-0.961 1.106-1.289l9.91-6.658c0.616-0.414 1.239-0.819 1.847-1.245 0.72-0.51 1.597-0.847 2.546-0.93l0.020-0.001c0.986-0.093 1.962-0.012 2.871 0.408 0.496 0.228 0.961 0.533 1.417 0.838q5.629 3.77 11.249 7.553c0.598 0.402 1.102 0.892 1.243 1.622 0.178 0.932 0.014 1.786-0.732 2.454-0.073 0.066-0.143 0.135-0.228 0.216 0.867 0.673 1.179 1.547 0.943 2.594l-0.032-0.079c-0.151 0.39-0.379 0.721-0.665 0.989l-0.002 0.001c-0.095 0.089-0.196 0.175-0.301 0.256l-0.009 0.007c-0.175 0.133-0.175 0.139 0.010 0.256 0.337-0.33 0.702-0.636 0.878-1.126 0.028 0.264-0.298 0.718-0.824 1.18 0.050 0.045 0.097 0.088 0.146 0.13 0.733 0.641 1.038 1.442 0.795 2.393-0.070 0.273-0.282 0.524-0.477 0.746-0.216 0.243-0.458 0.456-0.722 0.638l-0.013 0.009q-5.897 3.976-11.802 7.937c-1.119 0.752-2.36 0.981-3.68 0.873-1.024-0.082-1.93-0.457-2.781-1.032q-5.643-3.816-11.31-7.603c-0.428-0.287-0.846-0.582-1.145-1.016-0.591-0.857-0.484-1.841 0.128-2.575 0.149-0.179 0.323-0.337 0.457-0.474l-0.633-0.815c0.075 0.084 0.143 0.175 0.225 0.251 0.16 0.148 0.325 0.291 0.496 0.427 0.023 0.018 0.090-0.021 0.137-0.034-0.019-0.041-0.026-0.098-0.058-0.121-0.393-0.267-0.692-0.617-0.947-1.064zM20.508 10.197l-0.020-0.046c0.011-0.022 0.024-0.041 0.039-0.059l-0 0.001c0.62-0.605 0.48-1.481-0.062-2.031-0.592-0.601-1.339-0.873-2.148-0.954-0.907-0.090-1.791 0.064-2.595 0.504-0.556 0.303-1.080 0.666-1.608 1.016-0.877 0.582-1.747 1.172-2.62 1.76 0.184 0.125 0.36 0.246 0.538 0.366q2.25 1.518 4.501 3.034c1.359 0.912 2.722 1.817 4.076 2.732 0.12 0.081 0.189 0.069 0.299-0.005 1.079-0.729 2.163-1.45 3.244-2.177 0.598-0.402 1.178-0.824 1.572-1.451 0.283-0.453 0.383-0.932 0.185-1.441-0.146-0.374-0.416-0.657-0.729-0.907-0.556-0.457-1.256-0.759-2.023-0.83l-0.015-0.001c-0.829-0.075-1.64 0.031-2.397 0.412-0.065 0.028-0.144 0.054-0.224 0.073l-0.011 0.002zM34.775 13.225l-0.045-0.026c-0.019 0.014-0.039 0.027-0.058 0.043-0.272 0.245-0.541 0.493-0.815 0.734-0.079 0.062-0.168 0.123-0.26 0.177l-0.011 0.006c-0.187 0.122-0.376 0.241-0.561 0.366s-0.358 0.253-0.54 0.374c-0.206 0.137-0.418 0.264-0.624 0.401-0.167 0.111-0.327 0.233-0.495 0.344-0.201 0.133-0.408 0.256-0.61 0.39-0.175 0.116-0.337 0.241-0.509 0.355-0.273 0.181-0.553 0.349-0.824 0.533-0.129 0.087-0.243 0.197-0.371 0.285-0.189 0.13-0.386 0.247-0.576 0.374s-0.36 0.249-0.542 0.371-0.375 0.242-0.56 0.367-0.358 0.253-0.541 0.374c-0.206 0.137-0.418 0.265-0.624 0.401-0.167 0.111-0.328 0.233-0.496 0.343-0.278 0.184-0.561 0.36-0.838 0.546-0.124 0.083-0.233 0.189-0.358 0.273-0.195 0.132-0.398 0.252-0.594 0.381-0.175 0.116-0.349 0.245-0.524 0.363-0.19 0.128-0.385 0.249-0.578 0.374s-0.385 0.25-0.578 0.374c-0.144 0.093-0.285 0.193-0.436 0.271-0.185 0.103-0.41 0.21-0.643 0.303l-0.042 0.015c-0.166 0.058-0.37 0.112-0.58 0.152l-0.028 0.005c-0.24 0.054-0.48 0.13-0.723 0.139-0.544 0.021-1.090 0.006-1.636 0.006-0.015 0.001-0.033 0.002-0.051 0.002-0.034 0-0.068-0.003-0.101-0.009l0.003 0c-0.263-0.069-0.521-0.162-0.787-0.211-0.343-0.073-0.647-0.198-0.92-0.367l0.012 0.007c-0.214-0.123-0.422-0.257-0.632-0.387-0.2-0.125-0.399-0.25-0.596-0.38-0.175-0.116-0.349-0.245-0.524-0.363-0.186-0.125-0.377-0.241-0.562-0.366s-0.356-0.256-0.539-0.376c-0.259-0.169-0.528-0.324-0.783-0.498-0.285-0.196-0.554-0.415-0.84-0.61-0.256-0.175-0.532-0.32-0.789-0.492s-0.51-0.376-0.773-0.55c-0.331-0.218-0.678-0.412-1.007-0.632s-0.657-0.466-0.984-0.699c-0.108-0.077-0.211-0.164-0.321-0.238-0.21-0.14-0.426-0.273-0.636-0.412-0.162-0.108-0.319-0.225-0.483-0.332-0.202-0.132-0.411-0.253-0.613-0.386-0.175-0.116-0.335-0.243-0.507-0.358-0.206-0.137-0.416-0.268-0.624-0.401-0.183-0.116-0.367-0.233-0.549-0.349-0.168-0.11-0.339-0.217-0.497-0.339-0.224-0.175-0.436-0.363-0.674-0.562 0.003 0.066-0.011 0.125 0.010 0.144 0.236 0.209 0.472 0.42 0.721 0.614 0.172 0.134 0.364 0.241 0.545 0.365s0.358 0.255 0.541 0.377c0.206 0.137 0.419 0.265 0.625 0.402 0.168 0.111 0.328 0.233 0.497 0.343 0.274 0.181 0.554 0.353 0.828 0.534 0.175 0.116 0.338 0.241 0.508 0.359 0.218 0.151 0.438 0.298 0.657 0.448 0.105 0.072 0.204 0.151 0.311 0.221 0.202 0.132 0.408 0.257 0.61 0.39 0.175 0.116 0.337 0.24 0.509 0.354 0.268 0.178 0.54 0.349 0.808 0.524 0.175 0.116 0.349 0.247 0.524 0.365 0.201 0.133 0.408 0.256 0.611 0.389 0.175 0.116 0.337 0.24 0.508 0.355 0.19 0.128 0.388 0.244 0.576 0.374 0.204 0.142 0.397 0.3 0.601 0.441s0.425 0.274 0.636 0.413c0.162 0.108 0.32 0.224 0.483 0.331 0.207 0.136 0.419 0.263 0.625 0.4 0.168 0.111 0.327 0.233 0.495 0.344 0.201 0.133 0.404 0.266 0.613 0.386 0.187 0.115 0.412 0.234 0.644 0.34l0.041 0.017c0.18 0.077 0.391 0.084 0.565 0.17 0.3 0.148 0.625 0.17 0.941 0.197 0.408 0.036 0.815 0.009 1.226 0.008 0.009 0 0.019 0.001 0.029 0.001 0.042 0 0.083-0.004 0.123-0.011l-0.004 0.001c0.205-0.044 0.408-0.087 0.613-0.14 0.237-0.054 0.437-0.116 0.63-0.191l-0.032 0.011c0.279-0.119 0.506-0.234 0.725-0.36l-0.034 0.018c0.171-0.094 0.333-0.206 0.496-0.314s0.327-0.233 0.494-0.345c0.206-0.137 0.418-0.265 0.624-0.401 0.167-0.111 0.329-0.233 0.495-0.344 0.291-0.197 0.582-0.392 0.869-0.59 0.181-0.123 0.358-0.254 0.54-0.375 0.206-0.137 0.418-0.264 0.624-0.401 0.167-0.111 0.328-0.233 0.495-0.343 0.201-0.133 0.408-0.257 0.61-0.39 0.175-0.116 0.338-0.239 0.51-0.354 0.186-0.124 0.377-0.239 0.563-0.363s0.357-0.254 0.538-0.378c0.305-0.207 0.613-0.408 0.918-0.614 0.172-0.116 0.338-0.239 0.51-0.355 0.186-0.125 0.377-0.241 0.563-0.365s0.358-0.254 0.542-0.376c0.206-0.137 0.419-0.265 0.626-0.401 0.168-0.111 0.328-0.233 0.497-0.344 0.274-0.181 0.554-0.353 0.828-0.534 0.175-0.116 0.338-0.242 0.51-0.358 0.186-0.125 0.391-0.224 0.561-0.367 0.211-0.189 0.406-0.382 0.59-0.584l0.006-0.006c0.031-0.041 0.057-0.087 0.078-0.137l0.002-0.004zM34.046 18.043c-0.077-0.005-0.128-0.023-0.155-0.006-0.217 0.139-0.431 0.284-0.643 0.429-0.181 0.123-0.356 0.254-0.539 0.375-0.206 0.136-0.418 0.264-0.624 0.399-0.175 0.113-0.34 0.233-0.511 0.349-0.185 0.124-0.374 0.242-0.559 0.367s-0.357 0.253-0.54 0.373c-0.278 0.183-0.561 0.357-0.838 0.543-0.124 0.083-0.233 0.191-0.355 0.275-0.199 0.135-0.408 0.257-0.609 0.39-0.175 0.116-0.336 0.241-0.508 0.355-0.201 0.133-0.408 0.257-0.609 0.39-0.175 0.116-0.337 0.239-0.508 0.354-0.201 0.133-0.408 0.257-0.608 0.391-0.172 0.116-0.337 0.237-0.507 0.353-0.217 0.15-0.436 0.296-0.653 0.446-0.104 0.072-0.203 0.152-0.309 0.221-0.201 0.132-0.408 0.256-0.61 0.389-0.175 0.116-0.336 0.241-0.508 0.355-0.201 0.133-0.408 0.256-0.609 0.39-0.175 0.116-0.336 0.241-0.508 0.354-0.257 0.17-0.512 0.349-0.781 0.498-0.225 0.13-0.494 0.261-0.772 0.374l-0.045 0.016c-0.199 0.079-0.415 0.112-0.625 0.159-0.233 0.052-0.466 0.136-0.703 0.138-0.728 0.006-1.456 0.055-2.183-0.069-0.142-0.018-0.27-0.047-0.393-0.086l0.015 0.004c-0.242-0.087-0.48-0.185-0.714-0.291-0.206-0.096-0.378-0.192-0.543-0.297l0.019 0.011c-0.185-0.116-0.356-0.253-0.539-0.374-0.206-0.137-0.418-0.263-0.624-0.398-0.175-0.113-0.339-0.233-0.511-0.349-0.186-0.124-0.375-0.242-0.56-0.367s-0.358-0.252-0.539-0.375c-0.291-0.2-0.589-0.397-0.883-0.597-0.181-0.123-0.358-0.25-0.54-0.371s-0.377-0.239-0.561-0.363-0.356-0.256-0.537-0.377c-0.21-0.141-0.425-0.273-0.636-0.412-0.168-0.11-0.332-0.225-0.499-0.335-0.186-0.123-0.376-0.241-0.561-0.365s-0.357-0.253-0.538-0.376c-0.299-0.203-0.602-0.401-0.9-0.604-0.175-0.116-0.346-0.246-0.524-0.364-0.196-0.13-0.398-0.25-0.593-0.381-0.175-0.116-0.349-0.246-0.524-0.363-0.196-0.13-0.398-0.251-0.593-0.381-0.175-0.116-0.349-0.245-0.524-0.363-0.19-0.128-0.382-0.253-0.578-0.371-0.069-0.035-0.151-0.067-0.236-0.092l-0.010-0.003-0.024 0.063c0.116 0.084 0.225 0.175 0.343 0.251 0.196 0.13 0.398 0.252 0.595 0.381 0.175 0.116 0.349 0.245 0.524 0.363 0.186 0.125 0.377 0.241 0.562 0.366s0.357 0.254 0.539 0.376c0.206 0.137 0.418 0.265 0.625 0.4 0.175 0.113 0.341 0.233 0.513 0.349 0.186 0.124 0.376 0.242 0.559 0.37 0.203 0.143 0.394 0.304 0.602 0.44 0.331 0.218 0.675 0.416 1.005 0.635 0.264 0.175 0.509 0.377 0.773 0.551 0.331 0.218 0.678 0.412 1.009 0.632s0.657 0.466 0.984 0.699c0.108 0.077 0.209 0.166 0.321 0.238 0.333 0.214 0.674 0.415 1.005 0.634 0.263 0.175 0.51 0.374 0.773 0.55s0.53 0.321 0.79 0.491c0.307 0.201 0.6 0.424 0.913 0.616 0.186 0.113 0.401 0.218 0.626 0.3l0.026 0.008c0.174 0.060 0.384 0.115 0.601 0.153l0.026 0.004c0.264 0.054 0.531 0.136 0.797 0.137 0.627 0.003 1.262 0.081 1.876-0.137 0.202-0.072 0.427-0.084 0.623-0.168 0.317-0.146 0.579-0.287 0.832-0.443l-0.033 0.019c0.218-0.127 0.427-0.271 0.641-0.408 0.168-0.11 0.333-0.225 0.501-0.336 0.186-0.123 0.376-0.242 0.56-0.366s0.358-0.253 0.54-0.374c0.278-0.183 0.563-0.358 0.839-0.543 0.125-0.083 0.233-0.191 0.356-0.275 0.2-0.136 0.408-0.258 0.609-0.391 0.175-0.116 0.338-0.239 0.51-0.353 0.186-0.124 0.377-0.239 0.563-0.364s0.356-0.256 0.539-0.377c0.259-0.169 0.524-0.326 0.784-0.497 0.188-0.125 0.363-0.267 0.549-0.394 0.309-0.211 0.622-0.416 0.932-0.626 0.167-0.112 0.328-0.233 0.495-0.344 0.201-0.133 0.408-0.257 0.61-0.39 0.175-0.116 0.338-0.239 0.51-0.354 0.186-0.124 0.377-0.239 0.563-0.363s0.356-0.255 0.539-0.377c0.21-0.141 0.423-0.277 0.636-0.412 0.184-0.116 0.376-0.221 0.554-0.345 0.144-0.102 0.274-0.222 0.44-0.358z"></path>
<path fill="#fff" style="fill: var(--color1, #fff)" d="M3.009 16.988v-0.246c0.255 0.447 0.554 0.798 0.947 1.064 0.032 0.022 0.040 0.079 0.058 0.121-0.047 0.013-0.116 0.052-0.137 0.034-0.171-0.136-0.336-0.279-0.496-0.427-0.082-0.076-0.15-0.167-0.225-0.251z"></path>
<path fill="#fff" style="fill: var(--color1, #fff)" d="M20.508 10.197c0.091-0.022 0.169-0.048 0.243-0.080l-0.010 0.004c0.757-0.381 1.569-0.487 2.397-0.412 0.782 0.072 1.482 0.374 2.045 0.837l-0.007-0.005c0.312 0.25 0.582 0.533 0.729 0.907 0.198 0.508 0.098 0.99-0.185 1.441-0.392 0.627-0.972 1.048-1.572 1.451-1.081 0.727-2.165 1.448-3.244 2.177-0.11 0.074-0.179 0.086-0.299 0.005-1.356-0.915-2.721-1.82-4.076-2.732q-2.253-1.514-4.501-3.034c-0.175-0.12-0.354-0.241-0.538-0.366 0.873-0.589 1.747-1.18 2.62-1.76 0.529-0.349 1.053-0.712 1.608-1.016 0.804-0.44 1.689-0.594 2.595-0.504 0.81 0.080 1.556 0.353 2.148 0.954 0.542 0.549 0.683 1.426 0.062 2.031-0.014 0.017-0.027 0.036-0.038 0.056l-0.001 0.002zM17.587 12.975l3.299 2.219c0.656-0.437 1.303-0.865 1.946-1.299 0.478-0.323 0.964-0.637 1.317-1.112 0.268-0.36 0.327-0.828 0.102-1.147-0.433-0.62-1.062-0.926-1.798-1.002-0.685-0.071-1.331 0.109-1.926 0.433-0.477 0.26-0.928 0.569-1.384 0.867-0.508 0.332-1.014 0.676-1.557 1.041zM13.601 10.297c0.99 0.664 1.948 1.309 2.912 1.947 0.031 0.015 0.067 0.024 0.106 0.024 0.041 0 0.080-0.010 0.114-0.028l-0.001 0.001c0.316-0.196 0.626-0.401 0.932-0.611 0.582-0.399 1.203-0.746 1.675-1.286 0.437-0.5 0.529-1.079-0.022-1.567-0.417-0.38-0.974-0.614-1.585-0.614-0.063 0-0.124 0.002-0.186 0.007l0.008-0.001c-0.589 0.032-1.106 0.238-1.591 0.546-0.617 0.394-1.219 0.815-1.827 1.223z"></path>
<path fill="#fff" style="fill: var(--color1, #fff)" d="M34.778 13.223c-0.022 0.053-0.049 0.099-0.080 0.141l0.001-0.002c-0.19 0.208-0.385 0.401-0.588 0.584l-0.008 0.007c-0.17 0.143-0.376 0.242-0.561 0.367-0.175 0.116-0.337 0.243-0.51 0.358-0.274 0.181-0.553 0.353-0.828 0.534-0.168 0.111-0.329 0.233-0.497 0.344-0.207 0.137-0.419 0.264-0.626 0.401-0.183 0.122-0.359 0.254-0.542 0.376s-0.377 0.241-0.563 0.365c-0.175 0.116-0.339 0.239-0.51 0.355-0.305 0.206-0.613 0.408-0.918 0.614-0.182 0.123-0.356 0.256-0.538 0.378s-0.377 0.239-0.563 0.363c-0.175 0.116-0.337 0.24-0.51 0.354-0.201 0.133-0.408 0.257-0.61 0.39-0.168 0.111-0.328 0.233-0.495 0.343-0.206 0.137-0.418 0.264-0.624 0.401-0.182 0.121-0.359 0.251-0.54 0.375-0.291 0.197-0.582 0.392-0.869 0.59-0.166 0.114-0.327 0.233-0.495 0.344-0.206 0.137-0.418 0.264-0.624 0.401-0.167 0.111-0.327 0.233-0.494 0.345s-0.324 0.22-0.496 0.314c-0.186 0.108-0.413 0.223-0.646 0.324l-0.045 0.017c-0.162 0.064-0.362 0.126-0.567 0.174l-0.031 0.006c-0.203 0.053-0.408 0.096-0.613 0.14-0.036 0.006-0.077 0.010-0.118 0.010-0.010 0-0.020-0-0.030-0.001l0.001 0c-0.408 0-0.82 0.027-1.226-0.008-0.316-0.028-0.641-0.049-0.941-0.197-0.175-0.086-0.386-0.093-0.565-0.17-0.273-0.123-0.498-0.242-0.715-0.373l0.029 0.016c-0.209-0.12-0.411-0.253-0.613-0.386-0.168-0.111-0.327-0.233-0.495-0.344-0.206-0.136-0.418-0.264-0.625-0.4-0.163-0.107-0.32-0.224-0.483-0.331-0.211-0.14-0.428-0.27-0.636-0.413s-0.397-0.299-0.601-0.441c-0.188-0.13-0.386-0.247-0.576-0.374-0.172-0.116-0.337-0.241-0.508-0.355-0.201-0.133-0.408-0.256-0.611-0.389-0.175-0.116-0.349-0.247-0.524-0.365-0.268-0.178-0.54-0.349-0.808-0.524-0.175-0.116-0.337-0.24-0.509-0.354-0.201-0.133-0.408-0.258-0.61-0.39-0.106-0.069-0.206-0.149-0.311-0.221-0.218-0.15-0.439-0.297-0.657-0.448-0.171-0.116-0.335-0.244-0.508-0.359-0.274-0.181-0.553-0.353-0.828-0.534-0.168-0.111-0.329-0.233-0.497-0.343-0.207-0.137-0.419-0.264-0.625-0.402-0.183-0.122-0.359-0.253-0.541-0.377s-0.373-0.233-0.545-0.365c-0.249-0.194-0.485-0.408-0.721-0.614-0.021-0.019-0.006-0.078-0.010-0.144 0.238 0.199 0.45 0.388 0.674 0.562 0.158 0.123 0.329 0.229 0.497 0.339 0.182 0.116 0.366 0.233 0.549 0.349 0.208 0.133 0.419 0.263 0.624 0.401 0.172 0.116 0.334 0.244 0.507 0.358 0.201 0.133 0.408 0.254 0.613 0.386 0.164 0.107 0.32 0.224 0.483 0.332 0.211 0.14 0.426 0.272 0.636 0.412 0.111 0.074 0.213 0.16 0.321 0.238 0.327 0.233 0.649 0.475 0.984 0.699s0.677 0.414 1.007 0.632c0.264 0.175 0.51 0.374 0.773 0.55s0.533 0.318 0.789 0.492c0.286 0.194 0.555 0.414 0.84 0.61 0.255 0.175 0.524 0.329 0.783 0.498 0.183 0.12 0.358 0.253 0.539 0.376s0.376 0.241 0.562 0.366c0.175 0.116 0.349 0.246 0.524 0.363 0.196 0.13 0.396 0.255 0.596 0.38 0.21 0.131 0.418 0.264 0.632 0.387 0.261 0.163 0.565 0.287 0.889 0.357l0.019 0.003c0.266 0.049 0.524 0.142 0.787 0.211 0.029 0.005 0.063 0.008 0.097 0.008 0.018 0 0.036-0.001 0.053-0.002l-0.002 0c0.545 0 1.091 0.015 1.636-0.006 0.242-0.009 0.483-0.086 0.723-0.139 0.238-0.044 0.442-0.099 0.64-0.166l-0.032 0.009c0.274-0.108 0.5-0.215 0.717-0.334l-0.033 0.016c0.151-0.079 0.291-0.179 0.436-0.271 0.193-0.124 0.386-0.25 0.578-0.374s0.387-0.246 0.578-0.374c0.175-0.116 0.349-0.246 0.524-0.363 0.196-0.13 0.399-0.25 0.594-0.381 0.124-0.084 0.233-0.189 0.358-0.273 0.277-0.186 0.56-0.362 0.838-0.546 0.168-0.111 0.328-0.233 0.496-0.343 0.206-0.137 0.418-0.265 0.624-0.401 0.182-0.121 0.359-0.252 0.541-0.374s0.375-0.243 0.56-0.367 0.359-0.25 0.542-0.371 0.388-0.245 0.576-0.374c0.128-0.088 0.242-0.199 0.371-0.285 0.272-0.182 0.551-0.353 0.824-0.533 0.175-0.116 0.337-0.241 0.509-0.355 0.201-0.133 0.408-0.256 0.61-0.39 0.168-0.111 0.327-0.233 0.495-0.344 0.206-0.136 0.418-0.264 0.624-0.401 0.182-0.121 0.358-0.252 0.54-0.374s0.374-0.243 0.561-0.366c0.104-0.060 0.192-0.121 0.276-0.187l-0.005 0.004c0.275-0.241 0.544-0.489 0.815-0.734 0.017-0.016 0.037-0.029 0.058-0.043z"></path>
<path fill="#fff" style="fill: var(--color1, #fff)" d="M34.047 18.040c-0.166 0.135-0.296 0.256-0.441 0.356-0.179 0.123-0.371 0.228-0.554 0.345-0.214 0.135-0.426 0.271-0.636 0.412-0.182 0.122-0.356 0.255-0.539 0.377s-0.377 0.239-0.563 0.363c-0.175 0.116-0.337 0.24-0.51 0.354-0.201 0.133-0.408 0.257-0.61 0.39-0.168 0.111-0.329 0.233-0.495 0.344-0.31 0.21-0.623 0.415-0.932 0.626-0.186 0.128-0.361 0.27-0.549 0.394-0.258 0.171-0.524 0.328-0.784 0.497-0.183 0.12-0.358 0.254-0.539 0.377s-0.377 0.24-0.563 0.364c-0.175 0.116-0.338 0.239-0.51 0.353-0.201 0.133-0.408 0.256-0.609 0.391-0.124 0.084-0.233 0.192-0.356 0.275-0.277 0.185-0.561 0.359-0.839 0.543-0.183 0.121-0.359 0.252-0.54 0.374s-0.374 0.243-0.56 0.366c-0.168 0.111-0.332 0.226-0.501 0.336-0.211 0.139-0.419 0.282-0.641 0.408-0.22 0.137-0.482 0.279-0.753 0.405l-0.047 0.020c-0.196 0.084-0.421 0.096-0.623 0.168-0.614 0.218-1.249 0.14-1.876 0.137-0.266 0-0.533-0.083-0.797-0.137-0.242-0.042-0.453-0.097-0.657-0.166l0.030 0.009c-0.251-0.092-0.467-0.197-0.669-0.321l0.016 0.009c-0.313-0.192-0.606-0.415-0.912-0.616-0.259-0.169-0.532-0.319-0.79-0.491s-0.51-0.376-0.773-0.55c-0.33-0.219-0.671-0.42-1.005-0.634-0.112-0.072-0.213-0.16-0.321-0.238-0.327-0.233-0.649-0.476-0.984-0.699s-0.677-0.413-1.009-0.632c-0.264-0.175-0.51-0.376-0.773-0.551-0.33-0.219-0.674-0.416-1.005-0.635-0.207-0.136-0.398-0.298-0.602-0.44-0.183-0.129-0.373-0.246-0.559-0.37-0.172-0.116-0.34-0.233-0.513-0.349-0.207-0.136-0.419-0.263-0.625-0.4-0.182-0.121-0.358-0.253-0.539-0.376s-0.376-0.241-0.562-0.366c-0.175-0.116-0.349-0.245-0.524-0.363-0.196-0.13-0.398-0.252-0.595-0.381-0.116-0.079-0.229-0.167-0.343-0.251l0.024-0.063c0.096 0.027 0.177 0.060 0.255 0.099l-0.009-0.004c0.196 0.116 0.388 0.243 0.578 0.371 0.175 0.116 0.349 0.245 0.524 0.363 0.196 0.13 0.398 0.251 0.593 0.381 0.175 0.116 0.349 0.246 0.524 0.363 0.196 0.13 0.398 0.25 0.593 0.381 0.175 0.116 0.349 0.245 0.524 0.364 0.299 0.203 0.602 0.401 0.9 0.604 0.181 0.123 0.356 0.253 0.538 0.376s0.374 0.242 0.561 0.365c0.167 0.111 0.332 0.225 0.499 0.335 0.211 0.139 0.426 0.271 0.636 0.412 0.182 0.122 0.356 0.255 0.537 0.377s0.376 0.24 0.561 0.363 0.359 0.248 0.54 0.371c0.294 0.2 0.59 0.397 0.883 0.597 0.181 0.123 0.358 0.253 0.539 0.375s0.374 0.243 0.56 0.367c0.171 0.116 0.338 0.236 0.511 0.349 0.207 0.135 0.419 0.261 0.624 0.398 0.182 0.121 0.354 0.259 0.539 0.374 0.146 0.094 0.318 0.189 0.496 0.274l0.028 0.012c0.233 0.108 0.472 0.204 0.714 0.291 0.108 0.035 0.235 0.064 0.367 0.081l0.011 0.001c0.724 0.123 1.456 0.075 2.183 0.069 0.233 0 0.47-0.086 0.703-0.138 0.21-0.047 0.427-0.080 0.625-0.159 0.324-0.131 0.594-0.263 0.852-0.412l-0.033 0.017c0.268-0.151 0.524-0.327 0.781-0.498 0.175-0.116 0.336-0.24 0.508-0.354 0.201-0.133 0.408-0.256 0.609-0.39 0.175-0.116 0.336-0.241 0.508-0.355 0.201-0.133 0.408-0.257 0.61-0.389 0.106-0.069 0.204-0.15 0.309-0.221 0.217-0.15 0.436-0.296 0.653-0.446 0.17-0.116 0.335-0.239 0.507-0.353 0.201-0.133 0.408-0.257 0.608-0.391 0.175-0.116 0.337-0.24 0.508-0.354 0.201-0.133 0.408-0.257 0.609-0.39 0.175-0.116 0.336-0.241 0.508-0.355 0.201-0.133 0.408-0.254 0.609-0.39 0.123-0.084 0.233-0.192 0.355-0.275 0.277-0.185 0.56-0.359 0.838-0.543 0.182-0.121 0.358-0.251 0.54-0.373s0.374-0.243 0.559-0.367c0.171-0.116 0.338-0.233 0.511-0.349 0.206-0.136 0.418-0.263 0.624-0.399 0.182-0.121 0.358-0.252 0.539-0.375 0.213-0.146 0.426-0.291 0.643-0.429 0.030-0.010 0.080 0.009 0.158 0.013z"></path>
<path fill="#000" style="fill: var(--color2, #000)" d="M17.587 12.975c0.545-0.365 1.048-0.708 1.559-1.041 0.456-0.297 0.907-0.607 1.384-0.867 0.595-0.323 1.241-0.503 1.926-0.433 0.736 0.076 1.362 0.381 1.798 1.001 0.225 0.32 0.165 0.787-0.102 1.147-0.353 0.474-0.839 0.788-1.317 1.112-0.641 0.434-1.29 0.862-1.946 1.299z"></path>
<path fill="#000" style="fill: var(--color2, #000)" d="M13.598 10.298l0.535-0.36c0.608-0.408 1.21-0.828 1.827-1.223 0.483-0.308 1.002-0.514 1.591-0.546 0.053-0.004 0.115-0.007 0.178-0.007 0.611 0 1.168 0.233 1.587 0.615l-0.002-0.002c0.551 0.488 0.458 1.067 0.022 1.567-0.472 0.54-1.094 0.887-1.675 1.286-0.306 0.21-0.617 0.416-0.932 0.611-0.033 0.017-0.072 0.027-0.113 0.027-0.038 0-0.075-0.009-0.107-0.024l0.001 0.001c-0.962-0.636-1.923-1.282-2.912-1.946z"></path>
</symbol>
<symbol id="icon-DB" viewBox="0 0 32 32">
<title>DB</title>
<path fill="#000" style="fill: var(--color2, #000)" d="M15.828 2.595c2.344 0.099 4.659 0.315 6.842 1.197 0.797 0.325 1.484 0.746 2.089 1.26l-0.011-0.009c0.841 0.722 0.86 1.7 0 2.398-0.719 0.587-1.566 1.115-2.447 1.393-4.293 1.361-8.624 1.345-12.923 0.006-0.788-0.245-1.558-0.674-2.219-1.174-1.13-0.854-1.111-1.949-0.015-2.852 1.328-1.095 2.952-1.505 4.595-1.776 1.354-0.222 2.729-0.3 4.089-0.442z"></path>
<path fill="#000" style="fill: var(--color2, #000)" d="M6.337 8.095c0.86 1.526 2.108 2.152 3.48 2.494 1.81 0.478 3.888 0.752 6.030 0.752s4.22-0.274 6.201-0.79l-0.171 0.038c1.37-0.343 2.617-0.974 3.458-2.47 0 1.654 0.073 3.121-0.026 4.574-0.066 0.956-0.761 1.677-1.591 2.041-1.242 0.544-2.535 1.087-3.86 1.305-3.25 0.534-6.521 0.524-9.732-0.349-0.773-0.219-1.447-0.511-2.072-0.878l0.041 0.022c-1.173-0.672-1.88-1.63-1.774-3.097 0.078-1.131 0.016-2.27 0.016-3.643z"></path>
<path fill="#000" style="fill: var(--color2, #000)" d="M6.337 20.972c0.904 1.335 2.196 1.947 3.596 2.288 1.775 0.456 3.812 0.718 5.911 0.718s4.136-0.262 6.082-0.755l-0.171 0.037c1.746-0.425 2.68-1.117 3.592-2.5 0 1.219-0.089 2.253 0.019 3.266 0.214 2.004-0.823 3.211-2.519 3.805-1.355 0.485-2.938 0.854-4.576 1.037l-0.097 0.009c-2.656 0.294-5.323 0.198-7.925-0.518-0.755-0.213-1.409-0.481-2.025-0.813l0.052 0.026c-1.309-0.692-2.082-1.707-1.954-3.307 0.086-1.090 0.015-2.194 0.015-3.292z"></path>
<path fill="#000" style="fill: var(--color2, #000)" d="M6.337 14.767c0.765 1.081 1.773 1.706 2.934 2.043 4.385 1.274 8.786 1.265 13.168-0.011 1.158-0.336 2.161-0.962 2.877-2.265 0 1.702 0.091 3.191-0.032 4.663-0.079 0.939-0.853 1.544-1.638 2.023-1.357 0.827-2.872 1.169-4.424 1.351-2.952 0.346-5.895 0.335-8.797-0.387-0.709-0.179-1.325-0.409-1.908-0.696l0.056 0.025c-1.49-0.722-2.429-1.786-2.255-3.604 0.101-1.040 0.020-2.094 0.020-3.141z"></path>
</symbol>
<symbol id="icon-ELogo" viewBox="0 0 29 32">
<title>ELogo</title>
<path fill="#fff" style="fill: var(--color1, #fff)" d="M0.122 31.9v-22.974h11.98v1.259h-10.736v20.492h27.415v1.223h-28.66z"></path>
<path fill="#fff" style="fill: var(--color1, #fff)" d="M2.768 29.239v-17.516h9.134v0.958h-8.182v15.635h24.626v0.916l-25.577 0.007z"></path>
<path fill="#fff" style="fill: var(--color1, #fff)" d="M1.337 1.259v4.628h-1.216v-5.829h28.102v1.194h-26.886z"></path>
</symbol>
<symbol id="icon-Hibernate" viewBox="0 0 32 32">
<title>Hibernate</title>
<path fill="#000" style="fill: var(--color2, #000)" d="M30.089 21.144c-1.542 2.709-3.035 5.256-4.45 7.846-0.639 1.171-1.311 1.876-2.855 1.784-2.838-0.171-5.694-0.011-8.54-0.084-0.517-0.013-1.253-0.343-1.497-0.756-2.913-4.961-5.752-9.963-8.612-14.953-0.615-1.071-1.237-2.142-1.868-3.234 1.463-2.571 2.974-5.16 4.415-7.789 0.639-1.167 1.308-1.876 2.856-1.781 2.834 0.175 5.694 0.013 8.54 0.084 0.511 0.013 1.245 0.336 1.482 0.745 3.355 5.777 6.641 11.596 9.952 17.399 0.152 0.268 0.382 0.492 0.577 0.74zM8.343 20.911c3.314 0 6.481 0.024 9.646-0.028 0.428-0.007 1.039-0.28 1.246-0.624 1.614-2.681 3.149-5.409 4.766-8.219-3.231 0-6.293 0.056-9.351-0.031-1.020-0.029-1.521 0.392-1.961 1.18-1.4 2.524-2.831 5.032-4.346 7.722zM23.073 11.088c-1.543-2.646-2.903-5.009-4.304-7.344-0.156-0.26-0.545-0.535-0.828-0.539-3.081-0.038-6.163-0.024-9.487-0.024 1.505 2.635 2.855 5.045 4.27 7.414 0.164 0.275 0.687 0.467 1.047 0.472 2.999 0.038 5.998 0.021 9.303 0.021zM9.269 21.86c1.521 2.628 2.897 5.030 4.309 7.412 0.134 0.226 0.47 0.468 0.714 0.471 3.12 0.032 6.24 0.021 9.589 0.021-1.49-2.583-2.804-4.901-4.165-7.189-0.184-0.309-0.599-0.678-0.912-0.683-3.086-0.048-6.174-0.028-9.535-0.028z"></path>
<path fill="#fff" style="fill: var(--color1, #fff)" d="M8.343 20.911c1.519-2.69 2.948-5.198 4.351-7.722 0.441-0.788 0.939-1.21 1.957-1.18 3.058 0.088 6.12 0.031 9.351 0.031-1.616 2.811-3.149 5.539-4.766 8.219-0.207 0.343-0.819 0.616-1.246 0.624-3.168 0.051-6.334 0.028-9.646 0.028z"></path>
<path fill="#fff" style="fill: var(--color1, #fff)" d="M23.073 11.088c-3.304 0-6.304 0.016-9.303-0.021-0.36-0.004-0.882-0.197-1.047-0.472-1.415-2.37-2.765-4.779-4.27-7.414 3.325 0 6.406-0.014 9.487 0.024 0.284 0.004 0.673 0.279 0.828 0.539 1.401 2.336 2.761 4.696 4.304 7.344z"></path>
<path fill="#fff" style="fill: var(--color1, #fff)" d="M9.269 21.863c3.36 0 6.447-0.020 9.535 0.031 0.315 0.005 0.728 0.374 0.912 0.683 1.361 2.288 2.676 4.604 4.165 7.189-3.349 0-6.469 0.011-9.589-0.021-0.244 0-0.581-0.245-0.714-0.471-1.41-2.383-2.788-4.785-4.309-7.412z"></path>
</symbol>
<symbol id="icon-HTML5" viewBox="0 0 32 32">
<title>HTML5</title>
<path fill="#030303" style="fill: var(--color7, #030303)" d="M15.813 32c-0.694-0.206-1.384-0.422-2.081-0.617q-3.349-0.938-6.702-1.855c-0.242-0.066-0.325-0.164-0.346-0.416-0.212-2.5-0.441-4.996-0.663-7.494q-0.325-3.653-0.644-7.306-0.298-3.342-0.601-6.688c-0.039-0.433-0.071-0.866-0.108-1.322h22.67c-0.057 0.676-0.111 1.336-0.169 1.995q-0.366 4.12-0.736 8.239-0.361 4.026-0.725 8.053c-0.134 1.5-0.269 3.006-0.39 4.509-0.019 0.242-0.089 0.355-0.339 0.423q-4.346 1.191-8.688 2.407c-0.066 0.023-0.12 0.047-0.172 0.074l0.008-0.004zM16.007 27.063q1.25-0.342 2.505-0.688c1.022-0.282 2.044-0.563 3.063-0.856 0.093-0.027 0.215-0.135 0.227-0.219 0.063-0.426 0.094-0.858 0.134-1.287 0.063-0.688 0.129-1.371 0.188-2.058 0.087-1.056 0.166-2.113 0.255-3.169 0.027-0.327 0.086-0.651 0.116-0.977 0.031-0.344 0.044-0.688 0.063-1.055h-6.55c-0.197 0-0.396 0-0.593 0q-1.421 0-2.841 0c-0.196 0-0.356-0.036-0.375-0.272-0.063-0.744-0.14-1.489-0.192-2.234-0.027-0.398 0.017-0.43 0.411-0.431q1.795-0.004 3.59-0.004c2.188 0 4.375 0 6.563 0.009 0.239 0 0.297-0.1 0.313-0.313 0.029-0.431 0.084-0.859 0.118-1.289 0.030-0.375 0.047-0.754 0.071-1.155h-7.063c-2.25 0-4.496 0-6.744-0.008-0.258 0-0.357 0.069-0.328 0.336 0.054 0.474 0.087 0.951 0.128 1.427 0.091 1.045 0.179 2.090 0.273 3.134 0.095 1.063 0.207 2.129 0.282 3.196 0.022 0.308 0.116 0.419 0.426 0.418 1.988-0.010 3.976-0.006 5.964-0.008h3.5l-0.341 3.732c-0.438 0.121-0.864 0.247-1.296 0.361-0.622 0.16-1.243 0.317-1.865 0.473-0.987-0.258-1.975-0.51-2.957-0.782-0.116-0.051-0.203-0.151-0.233-0.273l-0.001-0.003c-0.079-0.555-0.144-1.113-0.179-1.672-0.018-0.286-0.151-0.342-0.398-0.339-0.677 0.009-1.354 0-2.030 0.004-0.375 0-0.427 0.071-0.387 0.45 0.042 0.392 0.079 0.786 0.115 1.178 0.077 0.828 0.157 1.654 0.226 2.482 0.019 0.222 0.125 0.326 0.332 0.383 0.784 0.209 1.563 0.438 2.347 0.651 1.054 0.291 2.11 0.573 3.164 0.86z"></path>
<path fill="#000" style="fill: var(--color2, #000)" d="M21.063 0v4.299h-1.418v-1.97l-0.066-0.028-0.941 1.441-0.938-1.434-0.057 0.020v1.971h-1.425c0-0.112 0-0.224 0-0.335q0-1.797 0-3.594c0-0.125-0.019-0.247-0.029-0.37h1.563l0.895 1.496 0.917-1.496z"></path>
<path fill="#000" style="fill: var(--color2, #000)" d="M11 0v4.298h-1.457v-1.404h-1.313v1.406h-1.48v-4.301h1.438v1.407h1.375v-1.407z"></path>
<path fill="#000" style="fill: var(--color2, #000)" d="M15.625 0v1.426h-1.292v2.875h-1.458v-2.851h-1.313v-1.45z"></path>
<path fill="#000" style="fill: var(--color2, #000)" d="M23.25 0v2.871h2.013v1.438h-3.482c0-0.136 0-0.258 0-0.381q0-1.779 0-3.559c0-0.125-0.019-0.247-0.029-0.37z"></path>
<path fill="#fcfcfc" style="fill: var(--color16, #fcfcfc)" d="M9.563 0v1.407h-1.375v-1.407z"></path>
<path fill="#fefefe" style="fill: var(--color15, #fefefe)" d="M19.563 0l-0.918 1.496-0.895-1.496z"></path>
<path fill="#171717" style="fill: var(--color17, #171717)" d="M16.006 13.813q-1.795 0-3.59 0.004c-0.394 0-0.438 0.033-0.411 0.431 0.052 0.746 0.125 1.489 0.192 2.234 0.021 0.236 0.181 0.272 0.375 0.272q1.421-0.003 2.841 0c0.197 0 0.396 0 0.593 0q0 1.404 0 2.807c-1.988 0-3.976 0-5.964 0.008-0.309 0-0.404-0.109-0.426-0.418-0.075-1.067-0.188-2.131-0.282-3.196-0.093-1.044-0.182-2.090-0.273-3.134-0.041-0.476-0.075-0.953-0.128-1.427-0.030-0.266 0.070-0.336 0.328-0.336 2.25 0.009 4.496 0.007 6.744 0.008q0.001 1.372 0.001 2.747z"></path>
<path fill="#fefefe" style="fill: var(--color15, #fefefe)" d="M16.006 19.563q0-1.404 0-2.807h6.553c-0.022 0.366-0.034 0.711-0.063 1.055-0.029 0.326-0.088 0.651-0.116 0.977-0.089 1.056-0.167 2.113-0.255 3.169-0.057 0.688-0.125 1.372-0.188 2.058-0.040 0.429-0.072 0.861-0.134 1.287-0.012 0.084-0.135 0.193-0.227 0.219-1.019 0.294-2.041 0.574-3.063 0.856q-1.25 0.345-2.505 0.688v-2.939c0.621-0.158 1.244-0.313 1.864-0.476 0.433-0.114 0.862-0.239 1.296-0.361l0.34-3.726z"></path>
<path fill="#171717" style="fill: var(--color17, #171717)" d="M16.007 24.125v2.938c-1.055-0.284-2.11-0.566-3.164-0.853-0.783-0.214-1.563-0.441-2.347-0.651-0.211-0.056-0.313-0.161-0.332-0.383-0.069-0.828-0.149-1.655-0.226-2.482-0.037-0.393-0.073-0.786-0.115-1.178-0.041-0.379 0.014-0.449 0.387-0.45 0.677 0 1.354 0.006 2.030-0.004 0.25-0.004 0.38 0.052 0.398 0.339 0.036 0.559 0.1 1.117 0.179 1.672 0.031 0.125 0.118 0.226 0.231 0.275l0.003 0.001c0.982 0.269 1.971 0.521 2.957 0.776z"></path>
<path fill="#fefefe" style="fill: var(--color15, #fefefe)" d="M16.006 13.813q0-1.375 0-2.745h7.063c-0.024 0.401-0.041 0.779-0.071 1.155-0.034 0.43-0.088 0.859-0.118 1.289-0.014 0.21-0.073 0.313-0.313 0.313-2.187-0.012-4.374-0.012-6.561-0.012z"></path>
</symbol>
<symbol id="icon-JS" viewBox="0 0 32 32">
<title>JS</title>
<path fill="#000" style="fill: var(--color2, #000)" d="M0.080 0h31.92v31.891h-31.92zM28.585 16.872c-0.38-0.684-0.822-1.244-1.44-1.636-1.434-0.915-2.988-0.972-4.555-0.476-2.48 0.784-3.472 4.006-1.938 6.106 0.696 0.952 1.659 1.507 2.691 1.986 0.782 0.362 1.574 0.707 2.336 1.11 0.591 0.313 0.892 0.839 0.773 1.526-0.111 0.642-0.576 0.984-1.161 1.123-1.29 0.305-2.424 0.025-3.308-1.018-0.171-0.201-0.32-0.421-0.506-0.664l-2.408 1.397c0.516 1.008 1.227 1.763 2.175 2.27 1.703 0.909 3.497 0.994 5.329 0.483 0.879-0.244 1.615-0.755 2.137-1.438l0.007-0.010c1.182-1.538 1.115-4.586-1.062-5.946-0.93-0.58-1.957-1.003-2.929-1.518-0.501-0.264-1.017-0.526-1.455-0.874-0.415-0.327-0.421-0.844-0.287-1.328 0.138-0.498 0.514-0.779 1.012-0.846 0.84-0.115 1.556 0.105 2.024 0.874 0.074 0.121 0.168 0.23 0.261 0.358zM14.421 14.658v0.469q0 2.053 0 4.106c0 1.98 0.007 3.96-0.015 5.94-0.007 0.624-0.197 1.188-0.865 1.433-0.72 0.264-1.502 0.088-1.965-0.462-0.246-0.292-0.457-0.615-0.705-0.953l-2.397 1.455c0.443 0.918 1.042 1.62 1.893 2.1 1.139 0.643 2.37 0.741 3.625 0.551s2.283-0.77 2.893-1.939c0.429-0.822 0.543-1.708 0.542-2.622q-0.003-4.824 0-9.648c0-0.14-0.014-0.28-0.021-0.43z"></path>
<path fill="#fff" style="fill: var(--color1, #fff)" d="M0.080 0v31.891h31.92v-31.891c0.027 0.106 0.077 0.213 0.077 0.316q0.006 6.823 0.003 13.646v18.035h-32.080q0-15.821 0.003-31.641c0.001-0.117 0.050-0.237 0.077-0.356z"></path>
<path fill="#fff" style="fill: var(--color1, #fff)" d="M28.585 16.872l-2.306 1.482c-0.094-0.127-0.19-0.237-0.261-0.358-0.471-0.769-1.187-0.989-2.024-0.874-0.495 0.068-0.872 0.348-1.012 0.846-0.133 0.482-0.127 0.999 0.287 1.328 0.443 0.348 0.957 0.609 1.455 0.874 0.973 0.514 2 0.936 2.929 1.518 2.177 1.359 2.244 4.407 1.062 5.946-0.529 0.689-1.263 1.197-2.111 1.434l-0.028 0.007c-1.834 0.511-3.626 0.426-5.329-0.483-0.949-0.506-1.66-1.261-2.175-2.27l2.408-1.396c0.183 0.243 0.333 0.462 0.506 0.664 0.886 1.043 2.018 1.323 3.308 1.018 0.585-0.139 1.050-0.481 1.161-1.123 0.119-0.687-0.182-1.213-0.773-1.526-0.759-0.402-1.554-0.746-2.336-1.11-1.032-0.479-1.996-1.034-2.691-1.986-1.533-2.1-0.541-5.322 1.938-6.106 1.569-0.496 3.122-0.438 4.555 0.476 0.613 0.393 1.058 0.953 1.438 1.637z"></path>
<path fill="#fff" style="fill: var(--color1, #fff)" d="M14.421 14.659h2.983c0.008 0.15 0.021 0.29 0.021 0.43q0 4.824 0 9.648c0 0.913-0.114 1.802-0.542 2.622-0.607 1.168-1.635 1.748-2.89 1.938s-2.485 0.092-3.625-0.551c-0.851-0.48-1.45-1.183-1.893-2.1l2.397-1.455c0.248 0.338 0.458 0.661 0.705 0.953 0.464 0.55 1.244 0.726 1.965 0.462 0.668-0.245 0.858-0.81 0.865-1.433 0.021-1.98 0.013-3.96 0.015-5.94q0-2.053 0-4.106z"></path>
</symbol>
<symbol id="icon-Mail" viewBox="0 0 32 32">
<title>Mail</title>
<path fill="#000" style="fill: var(--color2, #000)" d="M0 24.434q0-8.077 0-16.154c0.173 0.123 0.349 0.241 0.517 0.369q2.137 1.636 4.273 3.272 1.904 1.457 3.811 2.914 1.763 1.349 3.523 2.698 1.862 1.429 3.724 2.858c0.116 0.089 0.193 0.087 0.307 0q2.061-1.588 4.129-3.166 2.249-1.722 4.493-3.446 2.714-2.078 5.431-4.151c0.595-0.454 1.196-0.899 1.794-1.347v16.154c-0.175 0.346-0.319 0.716-0.533 1.034-0.331 0.495-0.773 0.775-1.425 0.774q-14.081-0.021-28.162-0.005c-0.46 0-0.815-0.164-1.125-0.491-0.362-0.379-0.583-0.83-0.757-1.312z"></path>
<path fill="#fff" style="fill: var(--color1, #fff)" d="M32.002 8.28c-0.598 0.448-1.199 0.893-1.794 1.346q-2.718 2.072-5.431 4.151-2.249 1.721-4.493 3.446-2.065 1.585-4.129 3.166c-0.115 0.088-0.192 0.091-0.307 0q-1.858-1.431-3.723-2.856-1.762-1.35-3.523-2.7-1.904-1.457-3.811-2.914-2.137-1.636-4.273-3.272c-0.168-0.129-0.345-0.246-0.517-0.369q0-4.141 0-8.282h32.001zM15.986 5.765q-6.913 0-13.825 0c-0.247 0-0.494 0.004-0.741 0.015-0.127 0.003-0.248 0.022-0.363 0.054l0.011-0.003c-0.273 0.079-0.315 0.228-0.095 0.409 0.644 0.528 1.293 1.050 1.954 1.557 1.424 1.092 2.858 2.172 4.287 3.258q1.97 1.498 3.936 3 2.314 1.763 4.624 3.53c0.175 0.135 0.283 0.131 0.458-0.003 1.303-0.999 2.615-1.985 3.924-2.975q1.738-1.317 3.476-2.635c1.166-0.883 2.34-1.757 3.498-2.65 1.285-0.991 2.556-1.999 3.832-3.006 0.082-0.065 0.193-0.227 0.168-0.269-0.068-0.108-0.174-0.188-0.299-0.22l-0.003-0.001c-0.232-0.036-0.5-0.057-0.773-0.057-0.023 0-0.046 0-0.069 0l0.003-0q-7-0.006-14.002-0.004z"></path>
<path fill="#fff" style="fill: var(--color1, #fff)" d="M0 24.434c0.174 0.482 0.395 0.933 0.755 1.312 0.311 0.327 0.665 0.492 1.125 0.491q14.081-0.010 28.162 0.005c0.652 0 1.094-0.279 1.425-0.774 0.214-0.321 0.358-0.688 0.533-1.034v7.566h-32q0-3.783 0-7.566z"></path>
<path fill="#000" style="fill: var(--color2, #000)" d="M15.986 5.765q7.004 0 14.004 0c0.012-0 0.027-0 0.041-0 0.281 0 0.556 0.022 0.825 0.064l-0.030-0.004c0.13 0.032 0.237 0.111 0.306 0.218l0.001 0.002c0.026 0.041-0.085 0.205-0.168 0.269-1.273 1.007-2.546 2.014-3.832 3.006-1.158 0.894-2.332 1.767-3.498 2.65s-2.318 1.758-3.476 2.635c-1.309 0.991-2.622 1.977-3.924 2.975-0.174 0.134-0.282 0.138-0.458 0.003q-2.306-1.774-4.624-3.53-1.969-1.5-3.936-3c-1.428-1.086-2.863-2.166-4.287-3.258-0.661-0.507-1.31-1.029-1.954-1.557-0.22-0.18-0.177-0.329 0.095-0.409 0.105-0.029 0.226-0.048 0.351-0.051l0.002-0c0.247-0.011 0.494-0.015 0.741-0.015q6.909 0 13.821 0.001z"></path>
</symbol>
<symbol id="icon-Map" viewBox="0 0 34 32">
<title>Map</title>
<path fill="#1d1d1d" style="fill: var(--color18, #1d1d1d)" d="M3.588 0c0.413 0.273 0.797 0.576 1.285 0.741 1.214 0.412 2.412 0.869 3.617 1.309 0.565 0.205 1.13 0.409 1.694 0.62 0.065 0.026 0.141 0.041 0.22 0.041 0.131 0 0.252-0.041 0.351-0.111l-0.002 0.001c0.554-0.354 1.098-0.73 1.66-1.074 0.266-0.162 0.434-0.168 0.67 0.011 0.102 0.074 0.218 0.145 0.339 0.207l0.015 0.007c0.025 0.011 0.055 0.017 0.086 0.017 0.013 0 0.026-0.001 0.039-0.003l-0.001 0c0.26-0.032 0.479 0.089 0.708 0.184 0.124 0.042 0.229 0.088 0.329 0.143l-0.010-0.005c0.097 0.066 0.18 0.142 0.251 0.228l0.002 0.002c0.083 0.109 0.19 0.195 0.314 0.251l0.005 0.002c0.032 0.014 0.069 0.022 0.108 0.022 0.059 0 0.114-0.018 0.159-0.050l-0.001 0.001c0.171-0.112 0.342-0.224 0.518-0.329 0.027-0.016 0.060-0.026 0.095-0.026 0.019 0 0.038 0.003 0.056 0.008l-0.001-0c0.038 0.029 0.063 0.075 0.065 0.126v0c0.001 0.121 0.048 0.231 0.124 0.314l-0-0c0.049 0.055 0.072 0.136 0.127 0.177 0.085 0.067 0.183 0.125 0.287 0.17l0.008 0.003c0.166 0.068 0.332 0.122 0.463 0.266 0.092 0.077 0.194 0.147 0.304 0.206l0.010 0.005c0.045 0.031 0.112 0.25 0.089 0.288-0.024 0.025-0.054 0.045-0.087 0.057l-0.002 0.001c-0.154 0.081-0.164 0.139-0.038 0.259 0.041 0.039 0.089 0.072 0.13 0.108s0.079 0.069 0.124 0.108c0.112-0.089 0.246-0.060 0.378-0.044 0.014 0 0.030 0.011 0.041 0.007 0.132-0.058 0.2 0.038 0.275 0.114s0.143 0.113 0.235 0.027c0.017-0.019 0.043-0.031 0.070-0.031 0.037 0 0.068 0.021 0.084 0.051l0 0.001c0.049 0.066 0.096 0.062 0.16 0.016 0.083-0.061 0.165-0.132 0.287-0.075 0.025 0.011 0.083-0.027 0.115-0.055 0.13-0.114 0.29-0.081 0.326 0.083s0.168 0.19 0.26 0.275c0.106 0.097 0.228 0.177 0.341 0.266 0.044 0.042 0.104 0.068 0.17 0.068 0.060 0 0.115-0.021 0.158-0.057l-0 0c0.053-0.046 0.122-0.073 0.197-0.073 0.038 0 0.075 0.007 0.108 0.020l-0.002-0.001c0.023 0.013 0.051 0.020 0.081 0.020 0.066 0 0.123-0.037 0.152-0.091l0-0.001c0.087-0.116 0.209-0.202 0.349-0.243l0.005-0.001c0.302-0.118 0.671-0.228 1.049-0.311l0.051-0.009c0.15-0.049 0.279-0.109 0.399-0.182l-0.009 0.005c0.016-0.010 0.028-0.027 0.030-0.047l0-0c0-0.12 0-0.242-0.014-0.362-0.019-0.242-0.047-0.483-0.064-0.724 0.005-0.038 0.028-0.070 0.060-0.088l0.001-0c0.020-0.004 0.044-0.007 0.067-0.007 0.080 0 0.154 0.028 0.212 0.074l-0.001-0.001c0.225 0.267 0.403 0.582 0.517 0.926l0.006 0.020c0.089 0.232 0.084 0.236 0.033 0.516-0.197-0.154-0.226-0.398-0.348-0.594 0.038 0.186 0.089 0.37 0.111 0.558 0.005 0.038 0.008 0.082 0.008 0.127 0 0.073-0.007 0.144-0.021 0.213l0.001-0.007c-0.008 0.044-0.074 0.078-0.115 0.116s-0.067 0.061-0.118 0.106c0.189-0.011 0.26-0.187 0.402-0.226v0.206h0.027l0.11-0.426h0.032c0.035 0.089 0.072 0.183 0.104 0.276 0.281 0.827 0.62 1.629 0.978 2.426 0.11 0.246 0.28 0.464 0.411 0.701 0.349 0.635 0.831 1.172 1.263 1.747q0.452 0.6 0.918 1.189c0.089 0.112 0.211 0.198 0.305 0.306 0.312 0.354 0.62 0.716 0.939 1.092 0.155-0.188 0.314-0.125 0.481-0.079 0.189 0.053 0.197 0.047 0.198 0.242 0.005 0.166 0.072 0.315 0.177 0.427l-0-0c0.128 0.15 0.235 0.316 0.348 0.478 0.092 0.138 0.195 0.258 0.311 0.364l0.001 0.001c0.129 0.13 0.242 0.275 0.337 0.432l0.006 0.010c0.19 0.264 0.402 0.494 0.638 0.696l0.005 0.004c0.069 0.062 0.128 0.017 0.184-0.006 0.096-0.040 0.145-0.018 0.162 0.084s0.047 0.227 0.059 0.342c0.009 0.212 0.155 0.388 0.351 0.442l0.003 0.001c0.154 0.049 0.304 0.109 0.457 0.159 0.128 0.040 0.275 0.064 0.427 0.064 0.039 0 0.078-0.002 0.117-0.005l-0.005 0c0.222-0.012 0.443 0.022 0.569 0.256 0.060 0.139 0.162 0.251 0.29 0.321l0.003 0.002c0.020 0.012 0.035 0.032 0.041 0.054l0 0.001c0.038 0.116 0.073 0.233 0.116 0.374-0.049-0.005-0.094-0.012-0.138-0.023l0.006 0.001c-0.036-0.012-0.069-0.035-0.104-0.050-0.15-0.062-0.228-0.007-0.244 0.155-0.012 0.131-0.035 0.252-0.070 0.367l0.003-0.013c-0.023 0.048-0.069 0.082-0.123 0.088l-0.001 0c-0.296-0.012-0.573-0.067-0.696-0.374-0.018-0.046-0.041-0.085-0.068-0.121l0.001 0.001c-0.039-0.050-0.073-0.105-0.162-0.081-0.039 0.012-0.098-0.027-0.141-0.056-0.061-0.040-0.115-0.085-0.163-0.134l-0-0c-0.169-0.177-0.39-0.26-0.613-0.338-0.068-0.029-0.147-0.052-0.23-0.066l-0.007-0.001c-0.159-0.018-0.251 0.097-0.338 0.202-0.128 0.155-0.133 0.177-0.034 0.341 0.038 0.074 0.068 0.16 0.087 0.25l0.001 0.007c0.022 0.075 0.040 0.144 0.131 0.177 0.027 0.013 0.045 0.040 0.045 0.071 0 0.035-0.023 0.064-0.054 0.074l-0.001 0c-0.096 0.035-0.215 0.069-0.336 0.094l-0.018 0.003c-0.129 0.029-0.261 0.052-0.392 0.075-0.097 0.019-0.17 0.099-0.177 0.199l-0 0.001c-0.010 0.099-0.015 0.214-0.015 0.331 0 0.050 0.001 0.099 0.003 0.148l-0-0.007c0 0.156 0 0.312 0 0.468 0 0.34 0 0.68 0 1.020q0.008 0.849 0.022 1.697c0 0.089 0.016 0.177 0.025 0.276 0.068-0.027 0.135-0.050 0.201-0.079 0.124-0.055 0.259-0.029 0.293 0.118 0.023 0.063 0.065 0.115 0.12 0.149l0.001 0.001c0.172 0.115 0.359 0.208 0.525 0.33 0.141 0.1 0.306 0.177 0.484 0.223l0.011 0.002c0.163 0.037 0.294 0.146 0.362 0.291l0.001 0.003c0.025 0.054 0.067 0.101 0.089 0.156 0.035 0.089 0.169 0.164 0.076 0.287-0.062 0.082-0.118 0.189-0.203 0.231-0.33 0.164-0.671 0.305-1.008 0.456-0.137 0.061-0.286 0.098-0.389 0.223-0.049 0.058-0.048 0.089 0.012 0.135 0.038 0.025 0.062 0.067 0.062 0.115 0 0.039-0.016 0.074-0.043 0.099l-0 0c-0.085 0.075-0.179 0.145-0.279 0.206l-0.009 0.005c-0.202 0.123-0.216 0.222-0.094 0.443 0.084 0.134 0.179 0.25 0.285 0.354l0.001 0c0.234 0.238 0.399 0.544 0.462 0.886l0.002 0.011c0.035 0.186 0.057 0.402 0.059 0.622l0 0.002c0 0.014 0 0.030 0 0.046 0 0.182-0.019 0.36-0.056 0.531l0.003-0.017c-0.065 0.302-0.298 0.536-0.593 0.604l-0.005 0.001c-0.317 0.079-0.587 0.248-0.789 0.477l-0.001 0.002c-0.14 0.162-0.33 0.25-0.511 0.354-0.052 0.029-0.104 0.060-0.153 0.094-0.038 0.020-0.064 0.059-0.064 0.105 0 0.036 0.016 0.067 0.041 0.089l0 0c0.046 0.046 0.097 0.085 0.154 0.118l0.004 0.002c0.124 0.057 0.226 0.146 0.296 0.258l0.002 0.003c0.023 0.048 0.071 0.081 0.127 0.081 0.026 0 0.050-0.007 0.071-0.019l-0.001 0c0.027-0.008 0.058-0.012 0.090-0.012 0.164 0 0.3 0.12 0.326 0.276l0 0.002c0.029 0.212 0.096 0.402 0.193 0.574l-0.004-0.008c0.104 0.223 0.205 0.448 0.309 0.671 0.040 0.066 0.063 0.145 0.063 0.23 0 0.021-0.001 0.042-0.004 0.063l0-0.002c-0.035 0.181-0.053 0.367-0.079 0.555-0.177-0.067-0.219-0.15-0.13-0.313 0.111-0.205 0.115-0.39-0.039-0.573-0.014-0.021-0.028-0.046-0.039-0.071l-0.001-0.003c-0.151-0.258-0.306-0.514-0.454-0.775-0.138-0.219-0.316-0.399-0.525-0.536l-0.007-0.004c-0.341-0.244-0.688-0.482-1.018-0.739-0.131-0.103-0.225-0.252-0.349-0.395 0.081-0.089 0.195-0.21 0.296-0.339 0.095-0.109 0.176-0.233 0.238-0.367l0.004-0.010c0.023-0.060-0.045-0.168-0.089-0.241-0.076-0.114-0.171-0.215-0.255-0.325-0.027-0.034-0.050-0.073-0.067-0.115l-0.001-0.003c-0.051-0.129-0.012-0.205 0.12-0.249 0.030-0.009 0.057-0.019 0.081-0.031l-0.003 0.001c0.036-0.020 0.071-0.044 0.134-0.089-0.067-0.009-0.107-0.016-0.148-0.019-0.015 0-0.032 0.001-0.049 0.001-0.093 0-0.184-0.008-0.273-0.023l0.009 0.001c-0.073-0.027-0.132-0.075-0.172-0.138l-0.001-0.001c-0.065-0.092-0.119-0.199-0.157-0.313l-0.002-0.008c-0.017-0.057 0.031-0.133 0.050-0.199 0.032 0.012 0.083 0.013 0.089 0.035 0.040 0.081 0.077 0.177 0.106 0.276l0.003 0.013c0.014 0.052 0.030 0.079 0.084 0.058 0.073-0.027 0.144-0.056 0.215-0.089 0.017-0.007 0.042-0.030 0.039-0.041-0.006-0.022-0.021-0.041-0.041-0.051l-0-0c-0.175-0.075-0.318-0.197-0.417-0.351l-0.002-0.004c-0.016-0.009-0.035-0.015-0.055-0.015-0.012 0-0.023 0.002-0.034 0.005l0.001-0c-0.070 0.163-0.209 0.089-0.323 0.098-0.076 0-0.152 0-0.228 0-0.006 0.001-0.012 0.002-0.019 0.002-0.043 0-0.081-0.024-0.099-0.060l-0-0.001c-0.064-0.089-0.135-0.167-0.213-0.237l-0.001-0.001c-0.026-0.023-0.089-0.004-0.131-0.006s-0.115 0.016-0.153-0.008c-0.104-0.066-0.228-0.1-0.304-0.219-0.057-0.089-0.020-0.159 0-0.239 0.002-0.014 0.004-0.030 0.005-0.047l0-0.001-0.121-0.016 0.037-0.173c-0.156-0.046-0.311-0.099-0.47-0.135-0.030-0.006-0.074 0.055-0.124 0.094-0.020-0.005-0.037-0.011-0.053-0.018l0.002 0.001c-0.131-0.066-0.139-0.064-0.197 0.074-0.022 0.058-0.077 0.098-0.141 0.098-0.006 0-0.013-0-0.019-0.001l0.001 0c-0.105-0.006-0.201-0.019-0.296-0.037l0.014 0.002c-0.132-0.024-0.22 0.034-0.225 0.115 0.064 0.049 0.12 0.1 0.172 0.157l0.001 0.001c0.082 0.108 0.165 0.231 0.242 0.358l0.011 0.019c0.056 0.096 0.117 0.216 0.172 0.338l0.010 0.026c0.105 0.229 0.295 0.337 0.531 0.387 0.14 0.025 0.264 0.062 0.381 0.112l-0.011-0.004c0.075 0.047 0.138 0.106 0.187 0.175l0.001 0.002c0.097 0.112 0.137 0.125 0.273 0.051-0.013 0.145 0.042 0.281-0.043 0.413-0.007 0.016-0.011 0.035-0.011 0.055 0 0.029 0.009 0.056 0.024 0.079l-0-0.001c0.151 0.177 0.168 0.381 0.159 0.591-0.004 0.141-0.026 0.275-0.064 0.403l0.003-0.011c-0.048 0.152-0.112 0.197-0.266 0.162-0.32-0.072-0.631-0.177-0.885-0.395-0.010-0.010-0.019-0.021-0.027-0.032l-0.001-0.001 0.055-0.024-0.12-0.093-0.012 0.123c-0.134-0.058-0.266-0.104-0.389-0.17-0.221-0.12-0.451-0.113-0.689-0.078-0.137 0.021-0.297 0.034-0.46 0.036l-0.002 0c-0.137-0.010-0.254-0.089-0.317-0.202l-0.001-0.002c-0.298-0.421-0.719-0.717-1.071-1.083-0.098-0.097-0.216-0.174-0.347-0.225l-0.007-0.002c-0.034-0.025-0.059-0.060-0.069-0.102l-0-0.001c-0.064-0.19 0.007-0.344 0.121-0.497s0.197-0.334 0.392-0.413c0.123-0.050 0.125-0.054 0.204 0.048l0.195-0.29c0.012-0.020 0.024-0.037 0.036-0.053l-0.001 0.001c0.089-0.102 0.159-0.204 0-0.304 0.149-0.281 0.431-0.338 0.686-0.438-0.187-0.065-0.354-0.067-0.475 0.107-0.044 0.042-0.096 0.077-0.152 0.102l-0.003 0.001c-0.031-0.039-0.049-0.089-0.049-0.143 0-0.061 0.024-0.117 0.062-0.159l-0 0c0.069-0.081 0.149-0.151 0.237-0.208l0.004-0.003c0.062-0.045 0.137-0.072 0.2-0.115 0.109-0.075 0.104-0.177-0.007-0.251-0.024-0.015-0.050-0.027-0.073-0.041-0.138-0.081-0.154-0.112-0.155-0.292l0.354 0.142 0.025-0.045c-0.058-0.040-0.116-0.079-0.177-0.12s-0.114-0.089-0.177-0.129c-0.046-0.023-0.101-0.044-0.158-0.060l-0.007-0.002 0.1-0.074c0-0.013 0-0.023-0.006-0.027-0.12-0.106-0.125-0.118-0.030-0.257 0.060-0.075 0.121-0.143 0.187-0.206l0.001-0.001c-0.154-0.297-0.177-0.67-0.462-0.919l-0.089 0.063c-0.112-0.162-0.214-0.322-0.328-0.474-0.099-0.148-0.208-0.277-0.331-0.392l-0.001-0.001c-0.080-0.066-0.213-0.077-0.326-0.089-0.089-0.011-0.126-0.043-0.104-0.126 0.055-0.217-0.112-0.305-0.245-0.39-0.124-0.068-0.27-0.132-0.422-0.184l-0.021-0.006c-0.041-0.016-0.075-0.038-0.106-0.065l0 0c-0.17-0.147-0.324-0.296-0.47-0.453l-0.003-0.003c-0.208-0.242-0.498-0.336-0.765-0.477-0.345-0.186-0.761-0.373-1.191-0.532l-0.070-0.023c-0.033-0.019-0.073-0.029-0.116-0.029-0.034 0-0.066 0.007-0.095 0.019l0.002-0.001c-0.040 0.019-0.114-0.037-0.203-0.070-0.080 0.067-0.149-0.019-0.233-0.089-0.058-0.036-0.124-0.068-0.194-0.092l-0.007-0.002s-0.004-0.009 0-0.017c0.026-0.060 0.089-0.131 0.073-0.177-0.036-0.103-0.090-0.192-0.159-0.266l0 0.001c-0.104-0.127-0.244-0.22-0.405-0.264l-0.006-0.001c-0.020-0.002-0.044-0.004-0.068-0.004h-0l0.29 0.157-0.014 0.039c-0.122-0.026-0.223-0.055-0.322-0.088l0.020 0.006c-0.084-0.038-0.156-0.080-0.223-0.129l0.003 0.002c-0.138-0.078-0.301-0.13-0.475-0.145l-0.004-0c-0.214-0.035-0.425-0.089-0.636-0.141-0.31-0.078-0.62-0.162-0.925-0.244-0.19-0.051-0.368 0.012-0.55 0.053-0.024 0.008-0.052 0.012-0.081 0.012-0.126 0-0.233-0.085-0.265-0.201l-0-0.002c-0.043-0.119-0.043-0.119-0.148-0.145l0.026 0.121c-0.19-0.128-0.375-0.242-0.546-0.372-0.048-0.049-0.080-0.113-0.088-0.185l-0-0.001c-0.012-0.087-0.075-0.156-0.157-0.177l-0.001-0c-0.146-0.046-0.228-0.127-0.208-0.293 0.008-0.068 0-0.069-0.14-0.081-0.010-0.107-0.017-0.211-0.030-0.313-0.002-0.014-0.004-0.029-0.004-0.045 0-0.089 0.042-0.169 0.107-0.22l0.001-0c0.158-0.134 0.219-0.332 0.328-0.498 0.089-0.129 0.011-0.253-0.078-0.364-0.147-0.184-0.297-0.367-0.429-0.562-0.095-0.166-0.248-0.29-0.43-0.345l-0.005-0.001 0.171-0.39c-0.083-0.127-0.362-0.166-0.228-0.432-0.391-0.177-0.776 0.006-1.191-0.013 0.028-0.041 0.045-0.093 0.073-0.1 0.089-0.022 0.195-0.039 0.304-0.047l0.007-0c0.089-0.007 0.177 0 0.261 0v-0.033c-0.089-0.011-0.177-0.026-0.266-0.031-0.389-0.017-0.74-0.166-1.012-0.402l0.002 0.002c-0.089-0.080-0.199-0.141-0.295-0.216-0.065-0.052-0.177-0.073-0.15-0.197 0-0.004-0.014-0.012-0.022-0.019-0.163-0.135-0.322-0.273-0.489-0.401-0.104-0.079-0.223-0.16-0.346-0.235l-0.019-0.011c-0.013-0.005-0.028-0.008-0.044-0.008-0.020 0-0.040 0.005-0.057 0.014l0.001-0c-0.11 0.050-0.109 0.053-0.201-0.039l0.072-0.158c-0.060-0.048-0.113-0.094-0.172-0.133-0.022-0.014-0.048-0.022-0.077-0.022-0.004 0-0.008 0-0.012 0.001l0.001-0c-0.143 0.011-0.285 0.035-0.429 0.038-0.043 0.003-0.094 0.004-0.145 0.004-0.118 0-0.234-0.009-0.347-0.026l0.013 0.002c-0.104-0.034-0.194-0.086-0.271-0.151l0.001 0.001c-0.046-0.031-0.075-0.089-0.119-0.12-0.068-0.040-0.113-0.113-0.113-0.196 0-0.043 0.012-0.083 0.033-0.117l-0.001 0.001c0.002-0.009 0.003-0.019 0.003-0.030 0-0.034-0.013-0.064-0.034-0.087l0 0c-0.159-0.146-0.323-0.285-0.504-0.443-0.002 0.011-0.003 0.024-0.003 0.037 0 0.102 0.061 0.189 0.148 0.228l0.002 0.001c0.189 0.097 0.231 0.266 0.243 0.454 0.010 0.2 0.033 0.386 0.068 0.568l-0.004-0.025c0.035 0.118 0.076 0.219 0.127 0.315l-0.004-0.009c-0.041 0.042-0.075 0.092-0.099 0.146l-0.001 0.003c-0.019 0.089 0.083 0.188 0.196 0.229s0.244 0.057 0.318 0.17c0.037 0.055 0.076 0.121 0.111 0.188l0.006 0.012c0.029 0.056 0.054 0.094 0.129 0.063s0.107 0.007 0.1 0.104l-0.344-0.042c0.214 0.189 0.394 0.398 0.668 0.483 0.12 0.037 0.235 0.096 0.354 0.136 0.078 0.027 0.166 0.026 0.241 0.058 0.128 0.057 0.251 0.127 0.374 0.196 0.195 0.11 0.391 0.177 0.608 0.058 0.010-0.005 0.022-0.008 0.034-0.008s0.024 0.003 0.035 0.008l-0-0c0.141 0.094 0.28 0.189 0.416 0.289 0.032 0.032 0.059 0.068 0.081 0.108l0.001 0.003-0.229 0.068c0 0.196 0.149 0.289 0.251 0.413l-0.266 0.203c0.223 0.146 0.457 0.051 0.702 0.094-0.027 0.038-0.041 0.077-0.068 0.094-0.12 0.072-0.246 0.135-0.366 0.208-0.040 0.026-0.071 0.064-0.088 0.108l-0.001 0.002c-0.026 0.094-0.094 0.169-0.181 0.204l-0.002 0.001c-0.116 0.044-0.201 0.147-0.219 0.272l-0 0.002c-0.015 0.053-0.031 0.098-0.052 0.141l0.002-0.005-0.46-0.177c-0.123 0.113-0.077 0.192-0.004 0.282 0.126 0.154 0.12 0.154-0.055 0.245s-0.33 0.169-0.485 0.266c-0.053 0.046-0.093 0.106-0.113 0.175l-0.001 0.003c-0.089 0.243-0.171 0.491-0.266 0.733-0.031 0.068-0.071 0.127-0.119 0.177l0-0c-0.050 0.061-0.113 0.055-0.14-0.014-0.193-0.506-0.546-0.908-0.859-1.338-0.101-0.139-0.177-0.296-0.289-0.426-0.071-0.078-0.161-0.139-0.261-0.176l-0.005-0.002c-0.087-0.019-0.152-0.096-0.152-0.188 0-0.011 0.001-0.021 0.003-0.031l-0 0.001c-0.003-0.049-0.022-0.094-0.051-0.13l0 0c-0.166-0.236-0.41-0.354-0.673-0.45-0.285-0.1-0.569-0.204-0.853-0.307-0.023-0.009-0.050-0.014-0.078-0.014-0.056 0-0.107 0.021-0.147 0.055l0-0c-0.142 0.105-0.181 0.104-0.329 0-0.035-0.021-0.076-0.039-0.119-0.052l-0.004-0.001c-0.066-0.024-0.143-0.019-0.185-0.099-0.012-0.022-0.089-0.016-0.129-0.016s-0.089 0.021-0.122 0.012c-0.248-0.061-0.496-0.127-0.742-0.193-0.039-0.010-0.074-0.028-0.102-0.053l0 0c-0.041-0.045-0.099-0.073-0.164-0.073-0.043 0-0.083 0.012-0.116 0.033l0.001-0.001c-0.013 0.005-0.028 0.008-0.044 0.008-0.026 0-0.050-0.008-0.070-0.023l0 0c-0.032-0.039-0.070-0.113-0.053-0.144 0.095-0.173 0-0.309-0.089-0.423-0.295-0.379-0.611-0.741-0.911-1.116-0.067-0.089-0.126-0.19-0.173-0.298l-0.004-0.010q-0.153-0.322-0.295-0.65c-0.089-0.206-0.182-0.413-0.256-0.625-0.042-0.12-0.040-0.256-0.071-0.381-0.038-0.15-0.119-0.296 0.066-0.414 0.059-0.038 0.050-0.114 0-0.169-0.097-0.113-0.198-0.224-0.314-0.354 0.141-0.161 0.36-0.297 0.425-0.553 0.031 0.005 0.058 0.011 0.084 0.019l-0.005-0.001c0.108 0.040 0.169 0.024 0.208-0.081 0.038-0.101 0.109-0.182 0.2-0.233l0.002-0.001c0.032-0.014 0.055-0.045 0.055-0.082 0-0.022-0.008-0.043-0.022-0.058l0 0c-0.089-0.132-0.186-0.266-0.282-0.4l0.148-0.109-0.177-0.020c0.032-0.038 0.049-0.078 0.071-0.081 0.098-0.016 0.14-0.084 0.177-0.164 0.063-0.137 0.089-0.143 0.205-0.055l0.056 0.042c0.212-0.026 0.354-0.251 0.602-0.148-0.006-0.020-0.010-0.043-0.010-0.067 0-0.090 0.052-0.168 0.127-0.205l0.001-0.001c0.020-0.014 0.036-0.033 0.045-0.056l0-0.001c0.036-0.081 0.081-0.134 0.183-0.107 0.001 0 0.003 0 0.005 0 0.033 0 0.062-0.013 0.084-0.035v0c0.066-0.063 0.122-0.139 0.191-0.198 0.083-0.072 0.061-0.13-0.004-0.19-0.036-0.033-0.078-0.059-0.125-0.094l-0.402 0.424c-0.051-0.089-0.138-0.153-0.030-0.237 0.064-0.048 0.119-0.105 0.164-0.169l0.002-0.002-0.083 0.042c-0.021-0.114 0.061-0.137 0.14-0.164-0.029-0.029-0.081-0.064-0.075-0.079 0.016-0.046 0.044-0.084 0.082-0.11l0.001-0c0.061-0.037 0.102-0.103 0.102-0.179 0-0.009-0.001-0.019-0.002-0.028l0 0.001c-0.012-0.266-0.014-0.54-0.047-0.807-0.022-0.097-0.082-0.178-0.163-0.227l-0.002-0.001c-0.161-0.104-0.355-0.169-0.565-0.177l-0.002-0c-0.056 0.002-0.107 0.018-0.151 0.045l0.001-0.001c-0.025 0.023-0.058 0.037-0.094 0.037-0.041 0-0.077-0.017-0.103-0.045l-0-0c-0.095-0.089-0.198-0.167-0.321-0.266 0.045 0 0.062 0 0.072-0.004 0.026-0.016 0.063-0.034 0.066-0.056s-0.027-0.056-0.050-0.067c-0.024-0.013-0.053-0.021-0.083-0.021-0.010 0-0.020 0.001-0.029 0.002l0.001-0c-0.223 0.062-0.404-0.054-0.592-0.135-0.167-0.073-0.33-0.154-0.501-0.215-0.086-0.023-0.185-0.037-0.287-0.042l-0.003-0c-0.036-0.069 0-0.095 0.057-0.116 0.151-0.053 0.3-0.115 0.452-0.167 0.112-0.038 0.226-0.067 0.374-0.112l-0.194-0.099c0.007-0.012 0.022-0.060 0.040-0.061 0.095-0.007 0.206-0.011 0.318-0.011 0.073 0 0.145 0.002 0.217 0.005l-0.010-0c0.118 0.008 0.148 0.071 0.126 0.177-0.007 0.035-0.019 0.089 0 0.107 0.054 0.051 0.116 0.095 0.183 0.129l0.004 0.002c0.016 0.008 0.066-0.035 0.089-0.064 0.002-0.006 0.002-0.013 0.002-0.020 0-0.023-0.009-0.044-0.023-0.059l0 0c-0.033-0.026-0.071-0.050-0.111-0.069l-0.004-0.002c0.1-0.087 0.231-0.14 0.375-0.14 0.027 0 0.054 0.002 0.080 0.006l-0.003-0c0.006-0 0.014-0.001 0.021-0.001 0.101 0 0.191 0.044 0.253 0.113l0 0c0.018 0.022 0.093 0.017 0.129 0 0.018-0.009 0.020-0.084 0-0.116-0.051-0.102-0.050-0.124 0.056-0.159 0.057-0.014 0.099-0.065 0.099-0.126 0-0.019-0.004-0.036-0.011-0.052l0 0.001c-0.026-0.125-0.114-0.224-0.23-0.265l-0.002-0.001c-0.112-0.033-0.204-0.102-0.265-0.194l-0.001-0.002c0.074-0.067 0.155-0.131 0.239-0.191l0.008-0.006c0.013-0.004 0.027-0.006 0.042-0.006 0.031 0 0.060 0.010 0.083 0.027l-0-0c0.070 0.051 0.137 0.107 0.228 0.080 0.070-0.014 0.131-0.048 0.177-0.096l0-0c0.022-0.031 0-0.122-0.036-0.161-0.090-0.098-0.183-0.188-0.28-0.274l-0.004-0.004c0.017-0.028 0.049-0.078 0.077-0.13 0.089-0.154 0.163-0.312 0.254-0.461 0.12-0.2 0.234-0.369 0.357-0.53l-0.010 0.014c0.044-0.058 0.137-0.078 0.208-0.116 0.029-0.016 0.058-0.033 0.089-0.050zM16.812 9.053c-0 0.013-0.001 0.029-0.001 0.044 0 0.283 0.085 0.545 0.231 0.764l-0.003-0.005q0.531 0.832 1.063 1.665c0.095 0.15 0.16 0.15 0.254 0q0.537-0.846 1.075-1.692c0.512-0.805 0.104-1.915-0.811-2.176-1.019-0.286-1.849 0.564-1.808 1.4z"></path>
<path fill="#1d1d1d" style="fill: var(--color18, #1d1d1d)" d="M7.539 11.005c0.266-0.131 0.903-0.029 0.907 0.147h-0.251v0.018l0.389 0.133c-0.012 0.016-0.029 0.058-0.058 0.068-0.222 0.083-0.452 0.127-0.673 0.013-0.081-0.053-0.15-0.119-0.204-0.196l-0.002-0.002c-0.038-0.052-0.074-0.111-0.105-0.174l-0.003-0.007z"></path>
<path fill="#fefefe" style="fill: var(--color15, #fefefe)" d="M16.812 9.053c-0.039-0.837 0.791-1.682 1.804-1.397 0.915 0.261 1.323 1.372 0.811 2.176q-0.538 0.846-1.075 1.692c-0.094 0.148-0.159 0.147-0.254 0q-0.531-0.833-1.063-1.665c-0.14-0.212-0.224-0.473-0.224-0.752 0-0.019 0-0.037 0.001-0.056l-0 0.003zM17.339 9.036c-0 0.003-0 0.006-0 0.010 0 0.474 0.384 0.858 0.858 0.858s0.858-0.384 0.858-0.858c0-0.47-0.379-0.852-0.848-0.858h-0.001c-0.004-0-0.009-0-0.013-0-0.47 0-0.852 0.379-0.857 0.848v0z"></path>
<path fill="#1d1d1d" style="fill: var(--color18, #1d1d1d)" d="M17.337 9.036c0.003-0.472 0.386-0.853 0.858-0.853 0.474 0 0.858 0.384 0.858 0.858s-0.384 0.858-0.858 0.858c-0.002 0-0.004 0-0.006-0h0c-0.472-0.003-0.853-0.386-0.853-0.858 0-0.002 0-0.004 0-0.006v0z"></path>
</symbol>
<symbol id="icon-Phone" viewBox="0 0 32 32">
<title>Phone</title>
<path fill="#fff" style="fill: var(--color1, #fff)" d="M-0.001 32q0-15.998 0-32.001h32.001q0 15.998 0 32.001zM22.099 31.307c0.462-0.082 1.351-0.203 2.223-0.401 2.099-0.476 3.623-1.877 5.142-3.271 1.044-0.96 1.226-2.031 0.344-3.142-1.333-1.68-2.937-3.086-4.859-4.073-1.099-0.569-2.207-0.491-3.203 0.284-0.565 0.439-1.068 0.886-1.541 1.363l-0.001 0.001c-1.448 1.469-2.459 1.621-4.2 0.518-1.971-1.25-3.462-3.002-4.881-4.814-0.892-1.138-1.707-2.327-2.078-3.758-0.316-1.222 0.017-2.109 1.014-2.864 0.729-0.54 1.369-1.074 1.977-1.642l-0.013 0.012c0.788-0.754 1.117-1.707 0.808-2.782-0.644-2.257-1.971-4.11-3.524-5.821-0.084-0.079-0.177-0.151-0.277-0.212l-0.007-0.004c-0.784-0.558-1.611-0.649-2.37-0.070-1.388 1.061-2.798 2.118-3.729 3.655-1.887 3.112-1.978 6.419-0.69 9.683 2.687 6.808 7.301 12.041 13.6 15.756 1.784 1.043 3.761 1.526 6.268 1.583z"></path>
<path fill="#000" style="fill: var(--color2, #000)" d="M22.102 31.307c-2.506-0.057-4.484-0.54-6.258-1.587-6.299-3.715-10.912-8.948-13.6-15.756-1.289-3.271-1.198-6.572 0.69-9.683 0.933-1.538 2.341-2.594 3.729-3.655 0.757-0.579 1.586-0.488 2.37 0.070 0.107 0.065 0.2 0.137 0.285 0.217l-0.001-0.001c1.553 1.707 2.879 3.564 3.524 5.821 0.309 1.081-0.020 2.028-0.808 2.782-0.595 0.556-1.236 1.090-1.905 1.588l-0.059 0.042c-0.996 0.755-1.33 1.643-1.014 2.864 0.37 1.431 1.186 2.62 2.078 3.758 1.422 1.812 2.911 3.563 4.881 4.814 1.739 1.104 2.752 0.953 4.2-0.518 0.474-0.478 0.977-0.925 1.507-1.338l0.035-0.026c0.996-0.774 2.102-0.853 3.203-0.284 1.921 0.987 3.524 2.392 4.859 4.073 0.882 1.111 0.7 2.182-0.344 3.142-1.52 1.398-3.042 2.8-5.142 3.271-0.879 0.202-1.768 0.323-2.23 0.405z"></path>
</symbol>
<symbol id="icon-Python" viewBox="0 0 32 32">
<title>Python</title>
<path fill="#000" style="fill: var(--color2, #000)" d="M0 16.688v-1.5c0.019-0.133 0.037-0.265 0.059-0.397 0.144-0.87 0.22-1.759 0.447-2.606 0.55-2.049 2.078-4.031 5.166-3.918 3.328 0.125 6.664 0.027 9.996 0.027h0.38v-1.111h-7.722c-0.008-0.072-0.016-0.112-0.016-0.152-0.004-1.218-0.012-2.438-0.008-3.655 0.001-0.197 0.034-0.387 0.094-0.564l-0.004 0.012c0.27-0.796 0.853-1.313 1.563-1.708 0.972-0.537 2.033-0.783 3.121-0.927 0.596-0.079 1.197-0.125 1.796-0.188h2.062c0.101 0.018 0.202 0.039 0.304 0.052 0.723 0.089 1.451 0.141 2.166 0.271 1.094 0.198 2.137 0.553 3.029 1.25 0.813 0.631 1.331 1.434 1.341 2.493 0.010 1.072-0.007 2.145-0.011 3.217-0.005 1.469 0.032 2.938-0.024 4.405-0.063 1.6-0.851 2.75-2.348 3.381-0.608 0.258-1.314 0.408-2.056 0.408-0.016 0-0.031-0-0.047-0l0.002 0c-2.614 0.004-5.229-0.024-7.842 0.021-2.652 0.046-3.956 1.844-4.125 3.957-0.107 1.325-0.044 2.664-0.056 3.996 0 0.119 0 0.238 0 0.375-0.846 0-1.638-0.021-2.428 0.004-1.393 0.045-2.447-0.568-3.261-1.642-0.842-1.11-1.196-2.411-1.389-3.763-0.083-0.582-0.128-1.162-0.191-1.739zM11.636 5.254c0.002 0 0.005 0 0.008 0 0.769 0 1.393-0.624 1.393-1.393s-0.624-1.393-1.393-1.393c-0.769 0-1.393 0.624-1.393 1.393 0 0 0 0.001 0 0.001v-0c0.002 0.766 0.62 1.387 1.385 1.392h0.001z"></path>
<path fill="#fff" style="fill: var(--color1, #fff)" d="M11.636 5.254c-0.762-0.010-1.376-0.63-1.376-1.393 0-0.769 0.624-1.393 1.393-1.393 0.006 0 0.012 0 0.018 0h-0.001c0.762 0.010 1.376 0.63 1.376 1.393 0 0.769-0.624 1.393-1.393 1.393-0.006 0-0.012-0-0.018-0h0.001z"></path>
<path fill="#000" style="fill: var(--color2, #000)" d="M24.813 8.085c1.039 0 2.044-0.082 3.031 0.019 1.552 0.159 2.528 1.165 3.205 2.494 0.556 1.091 0.803 2.271 0.92 3.479 0.179 1.856 0.159 3.704-0.346 5.516-0.36 1.293-0.968 2.438-2.095 3.235-0.692 0.496-1.555 0.793-2.488 0.793-0.022 0-0.044-0-0.066-0l0.003 0q-5.358-0.005-10.716-0.005c-0.071 0-0.142 0.010-0.233 0.017v1.063h7.744c0 0.161 0 0.281 0 0.402 0.006 1.114 0.021 2.229 0.016 3.343-0.003 0.774-0.387 1.368-0.956 1.854-0.688 0.589-1.506 0.934-2.375 1.128-2.866 0.64-5.738 0.668-8.598-0.043-0.827-0.198-1.551-0.548-2.177-1.022l0.015 0.011c-0.921-0.707-1.416-1.606-1.397-2.813 0.037-2.375 0-4.75 0.018-7.125 0.015-1.909 1.063-3.276 2.896-3.782 0.46-0.13 0.988-0.206 1.534-0.211h0.002c2.479-0.021 4.957-0.009 7.438-0.009 0.702 0 1.394-0.069 2.052-0.332 1.405-0.563 2.139-1.665 2.438-3.093 0.079-0.381 0.124-0.82 0.125-1.269v-0.001c0.020-1.204 0.011-2.411 0.011-3.648zM19.048 28.026c0.001 0.767 0.623 1.388 1.39 1.388s1.39-0.622 1.39-1.39-0.622-1.39-1.39-1.39c-0 0-0 0-0.001 0h0c-0 0-0.001 0-0.001 0-0.767 0-1.388 0.622-1.388 1.388 0 0.001 0 0.003 0 0.004v-0z"></path>
<path fill="#fff" style="fill: var(--color1, #fff)" d="M19.048 28.026c0.010-0.76 0.628-1.372 1.39-1.372 0.768 0 1.39 0.622 1.39 1.39s-0.622 1.39-1.39 1.39c-0.005 0-0.010-0-0.016-0h0.001c-0.762-0.010-1.375-0.629-1.375-1.392 0-0.005 0-0.011 0-0.016v0.001z"></path>
</symbol>
<symbol id="icon-Spring" viewBox="0 0 43 32">
<title>Spring</title>
<path fill="#000" style="fill: var(--color2, #000)" d="M35.388 12.112c-0.105 0.204-0.198 0.418-0.316 0.612-0.368 0.612-0.727 1.231-1.125 1.823-0.325 0.483-0.69 0.941-1.058 1.393-0.272 0.333-0.573 0.642-0.873 0.952-0.363 0.375-0.73 0.746-1.108 1.106-0.234 0.223-0.49 0.424-0.74 0.63-0.313 0.26-0.623 0.525-0.946 0.772-0.801 0.63-1.701 1.243-2.642 1.794l-0.114 0.061c-0.738 0.418-1.488 0.816-2.248 1.193-0.899 0.453-1.967 0.878-3.074 1.214l-0.148 0.038c-0.773 0.232-1.566 0.4-2.354 0.574-0.395 0.087-0.802 0.119-1.203 0.179-0.418 0.060-0.835 0.129-1.253 0.179-0.292 0.035-0.588 0.043-0.881 0.071-0.332 0.032-0.663 0.073-0.995 0.107q-0.242 0.025-0.486 0.038c-0.239 0.013-0.477 0.011-0.716 0.032-0.35 0.030-0.699 0.075-1.048 0.11-0.161 0.016-0.323 0.024-0.485 0.036-0.45 0.033-0.9 0.060-1.35 0.103-0.394 0.038-0.786 0.087-1.178 0.142-0.348 0.050-0.694 0.119-1.043 0.169-0.064 0.009-0.144-0.039-0.204-0.079-0.799-0.543-1.376-1.274-1.79-2.14-0.573-1.2-0.779-2.474-0.733-3.795 0.132-3.778 2.46-7.637 6.994-9.311 1.306-0.481 2.658-0.709 4.042-0.78 1.909-0.098 3.811 0.024 5.715 0.095 4.624 0.174 8.758-1.175 12.449-3.929 1.426-1.064 2.644-2.331 3.567-3.864 0.018-0.024 0.036-0.045 0.055-0.065l-0 0c0.076 0.311 0.151 0.603 0.22 0.895 0.457 1.922 0.849 3.857 1.129 5.812 0.347 2.43 0.533 4.871 0.396 7.327-0.125 2.251-0.503 4.453-1.382 6.545-0.796 1.895-1.913 3.561-3.543 4.847-1.354 1.069-2.908 1.708-4.579 2.080-1.89 0.422-3.808 0.5-5.736 0.446-2.113-0.060-4.215-0.28-6.319-0.47-1.539-0.138-3.078-0.271-4.625-0.251-0.9 0.011-1.797 0.072-2.68 0.266-0.011 0.003-0.023 0.004-0.035 0.004-0.039 0-0.075-0.015-0.103-0.039l0 0c0.358-0.111 0.71-0.232 1.070-0.331q0.776-0.213 1.565-0.397c0.53-0.125 1.065-0.234 1.598-0.349 0.605-0.131 1.209-0.263 1.815-0.389 0.652-0.135 1.308-0.248 1.957-0.398 0.597-0.137 1.187-0.302 1.776-0.469 1.134-0.32 2.202-0.798 3.235-1.354 1.125-0.605 2.082-1.22 2.989-1.899l-0.061 0.044c0.401-0.298 0.808-0.592 1.2-0.904 0.282-0.224 0.541-0.477 0.811-0.716 0.244-0.215 0.5-0.418 0.733-0.646 0.396-0.387 0.786-0.779 1.163-1.184 0.388-0.418 0.781-0.835 1.129-1.283 0.684-0.882 1.339-1.784 1.899-2.753s1.065-1.96 1.423-3.023c0.096-0.284 0.197-0.566 0.298-0.848z"></path>
<path fill="#000" style="fill: var(--color2, #000)" d="M7.425 28.231c-0.005 1.281-1.045 2.318-2.327 2.318-1.285 0-2.327-1.042-2.327-2.327s1.042-2.327 2.327-2.327c0.004 0 0.007 0 0.011 0h-0.001c1.28 0.003 2.317 1.041 2.317 2.321 0 0.005-0 0.010-0 0.015v-0.001z"></path>
</symbol>
<symbol id="icon-Stress" viewBox="0 0 33 32">
<title>Stress</title>
<path fill="#030303" style="fill: var(--color7, #030303)" d="M6.775 32c-1.025-0.462-1.452-1.066-1.377-1.963 0.050-0.622 0.337-1.142 0.776-1.555 0.396-0.367 0.827-0.71 1.283-1.021l0.038-0.025c1.424-0.977 2.859-1.936 4.299-2.892 0.149-0.099 0.331-0.16 0.527-0.166l0.002-0q4.278-0.015 8.555 0c0.208 0.001 0.399 0.071 0.553 0.186l-0.002-0.002c1.445 1.189 2.97 2.287 4.234 3.683 0.326 0.346 0.631 0.721 0.907 1.117l0.021 0.032c0.771 1.164-0.302 2.556-1.299 2.549q-4.522 0-9.043 0c-0.082 0.012-0.155 0.033-0.224 0.063l0.006-0.002h-0.121c-0.019-0.020-0.034-0.053-0.056-0.057-0.733-0.153-1.149-0.628-1.319-1.331-0.27-1.099 0.489-2.089 1.62-2.112 0.685-0.014 1.371-0.007 2.057-0.009 0.235 0 0.469 0 0.786 0-0.924-0.562-1.769-1.079-2.62-1.585-0.042-0.019-0.092-0.030-0.144-0.030s-0.102 0.011-0.147 0.031l0.002-0.001c-0.39 0.181-0.769 0.386-1.155 0.576-0.697 0.342-1.396 0.68-2.164 1.054 0.376 0.031 0.671 0.061 0.968 0.078 0.428 0.024 0.537 0.172 0.324 0.553-0.384 0.688-0.347 1.357-0.016 2.045 0.215 0.446 0.147 0.544-0.349 0.561q-2.751 0.086-5.501 0.171c-0.078 0.013-0.149 0.034-0.215 0.063l0.006-0.002z"></path>
<path fill="#ed0202" style="fill: var(--color20, #ed0202)" d="M33.331 6.715c-0.010 0.004-0.027 0.007-0.027 0.011-0.128 1.061-0.889 1.665-1.64 2.278-0.67 0.544-1.341 1.094-2.003 1.651-0.2 0.168-0.369 0.163-0.561 0.004-0.876-0.726-1.767-1.434-2.628-2.178-0.872-0.752-1.164-1.804-0.835-2.74 0.475-1.356 2.423-1.971 3.492-0.743 0.078 0.090 0.148 0.187 0.224 0.284 0.775-0.899 1.548-1.164 2.459-0.857 0.89 0.302 1.311 0.978 1.452 1.868 0.021 0.096 0.044 0.177 0.072 0.256l-0.004-0.014z"></path>
<path fill="#050505" style="fill: var(--color8, #050505)" d="M0 7.138c0.166-0.33 0.48-0.338 0.786-0.363 0.332-0.027 0.623-0.581 0.409-0.834-0.605-0.716-0.38-0.745 0.177-1.315 0.199-0.203 0.394-0.212 0.602-0.018 0.044 0.041 0.107 0.065 0.142 0.111 0.232 0.315 0.488 0.181 0.76 0.064s0.266-0.347 0.27-0.58c0.008-0.385 0.126-0.507 0.504-0.515 0.1 0 0.201 0 0.302 0 0.56 0 0.584 0.022 0.648 0.575 0.040 0.346 0.367 0.694 0.691 0.683 0.121-0.004 0.238-0.129 0.348-0.21 0.181-0.134 0.38-0.384 0.6-0.242 0.28 0.193 0.511 0.435 0.686 0.716l0.006 0.010c0.061 0.096-0.093 0.366-0.201 0.519-0.247 0.349-0.276 0.489-0.039 0.838 0.066 0.093 0.162 0.16 0.274 0.187l0.003 0.001c0.817 0.135 0.918 0.266 0.811 1.085-0.033 0.257-0.149 0.387-0.423 0.412-0.201 0.019-0.423 0.072-0.585 0.186-0.292 0.209-0.302 0.55-0.077 0.826 0.43 0.527 0.427 0.575-0.072 1.056-0.407 0.392-0.459 0.396-0.912 0.068-0.524-0.38-1-0.169-1.072 0.475-0.051 0.457-0.158 0.554-0.611 0.555h-0.242c-0.534 0-0.63-0.070-0.635-0.601-0.004-0.55-0.597-0.742-1.008-0.488-0.582 0.359-0.587 0.351-1.069-0.121-0.363-0.357-0.374-0.444-0.060-0.832 0.164-0.204 0.352-0.379 0.192-0.685-0.153-0.294-0.385-0.437-0.699-0.438-0.009 0.001-0.019 0.001-0.030 0.001-0.205 0-0.383-0.113-0.476-0.28l-0.001-0.003zM3.811 8.789c0.72 0.040 1.278-0.455 1.331-1.179 0.047-0.673-0.536-1.281-1.252-1.307-0.588-0.021-1.191 0.497-1.228 1.054-0.056 0.857 0.373 1.389 1.149 1.432z"></path>
<path fill="#fbfbfb" style="fill: var(--color21, #fbfbfb)" d="M7.985 32c0.060-0.026 0.13-0.048 0.203-0.060l0.005-0.001q2.751-0.088 5.501-0.171c0.496-0.016 0.564-0.116 0.349-0.561-0.332-0.688-0.368-1.357 0.016-2.045 0.213-0.382 0.104-0.53-0.324-0.553-0.296-0.016-0.592-0.047-0.968-0.078 0.768-0.374 1.468-0.711 2.164-1.054 0.387-0.19 0.766-0.394 1.155-0.576 0.042-0.019 0.092-0.030 0.144-0.030s0.102 0.011 0.147 0.031l-0.002-0.001c0.851 0.506 1.694 1.023 2.62 1.585-0.317 0-0.552 0-0.786 0-0.685 0-1.371-0.005-2.057 0.009-1.131 0.023-1.89 1.014-1.62 2.112 0.172 0.701 0.586 1.176 1.319 1.331 0.022 0.004 0.037 0.038 0.056 0.057z"></path>
<path fill="#121212" style="fill: var(--color22, #121212)" d="M16.696 0c0.21 0.23 0.22 0.515 0.216 0.803-0.005 0.312 0.010 0.627-0.028 0.935-0.012 0.096-0.172 0.242-0.262 0.242s-0.258-0.15-0.263-0.242c-0.012-0.19-0.019-0.413-0.019-0.637 0-0.244 0.008-0.487 0.024-0.727l-0.002 0.033c0.010-0.14 0.139-0.272 0.213-0.408z"></path>
<path fill="#404040" style="fill: var(--color23, #404040)" d="M16.030 32c0.063-0.027 0.137-0.049 0.214-0.060l0.005-0.001q4.522 0 9.043 0c-0.006 0.010-0.009 0.023-0.009 0.036 0 0.007 0.001 0.015 0.003 0.021l-0-0.001z"></path>
<path fill="#030303" style="fill: var(--color7, #030303)" d="M21.233 18.011l-0.418 5.693c-0.093 0.005-0.171 0.015-0.249 0.015h-8.137c-0.416 0-0.438-0.025-0.449-0.447q-0.060-2.343-0.125-4.686c-0.005-0.178-0.035-0.356-0.054-0.538-0.647 0-1.27 0.024-1.893-0.006-0.799-0.039-1.563-0.257-2.299-0.57-1.709-0.736-3.176-1.567-4.54-2.534l0.076 0.051c-0.455-0.319-0.813-0.739-0.847-1.331-0.061-1.101 0.914-1.907 2.028-1.633 0.517 0.128 1.009 0.382 1.49 0.624 0.86 0.433 1.686 0.935 2.555 1.347 1.334 0.633 2.689 0.684 4.023-0.034 0.45-0.242 0.89-0.504 1.344-0.74 0.57-0.296 1.129-0.41 1.777-0.121 0.731 0.325 1.515 0.293 2.256-0.047 0.919-0.423 1.732-0.275 2.476 0.395 0.777 0.699 1.663 1.163 2.734 1.175 0.847 0.010 1.619-0.267 2.348-0.67 0.807-0.446 1.59-0.94 2.412-1.354 0.475-0.246 1.027-0.455 1.605-0.599l0.053-0.011c0.567-0.136 1.253 0.264 1.523 0.769 0.307 0.575 0.242 1.345-0.171 1.81-0.166 0.187-0.344 0.379-0.553 0.51-1.702 1.066-3.431 2.078-5.37 2.668-1.166 0.36-2.35 0.51-3.593 0.264zM17.097 14.899c0.16 0.078 0.312 0.149 0.46 0.226 0.207 0.107 0.363 0.064 0.475-0.145s0-0.322-0.165-0.413c-0.307-0.166-0.605-0.356-0.932-0.48-0.080-0.028-0.172-0.044-0.268-0.044-0.107 0-0.21 0.020-0.304 0.057l0.006-0.002c-0.35 0.145-0.679 0.344-1.010 0.533-0.146 0.083-0.31 0.177-0.192 0.399s0.274 0.277 0.497 0.165c0.147-0.074 0.298-0.14 0.469-0.219 0 2.041 0 4.036 0 6.030 0 0.231 0 0.463 0.013 0.694 0.018 0.353 0.221 0.579 0.502 0.752 0.278-0.222 0.455-0.562 0.455-0.942 0-0.016-0-0.032-0.001-0.048l0 0.002c-0.015-2.176-0.007-4.354-0.007-6.567z"></path>
<path fill="#050505" style="fill: var(--color8, #050505)" d="M16.341 3.725c1.153 0.033 2.098 0.349 2.874 1.075 0.986 0.924 1.354 2.081 1.114 3.395-0.257 1.41-0.896 2.615-2.142 3.416-1.076 0.693-2.172 0.696-3.206-0.054-1.596-1.152-2.339-2.739-2.088-4.702 0.195-1.537 1.414-2.759 2.922-3.070 0.149-0.027 0.33-0.048 0.513-0.059l0.013-0.001zM17.316 6.444c-0.977 0.776-2.061 1.21-3.317 1.256 0.151 1.253 0.665 2.273 1.713 2.976 0.439 0.294 0.922 0.335 1.435 0.162 1.149-0.389 1.996-2.008 2.026-3.071-0.015-0.113-0.084-0.207-0.18-0.256l-0.002-0.001c-0.667-0.209-1.233-0.579-1.673-1.064l-0.003-0.003z"></path>
<path fill="#0c0c0c" style="fill: var(--color24, #0c0c0c)" d="M22.705 5.56c-0.044-0.101-0.125-0.203-0.121-0.302 0-0.114 0.047-0.273 0.129-0.33 0.288-0.198 0.6-0.363 0.904-0.536 0.113-0.065 0.221-0.153 0.343-0.181 0.089-0.020 0.242 0.011 0.284 0.074 0.053 0.079 0.065 0.282 0.018 0.314-0.451 0.296-0.917 0.567-1.38 0.843-0.015 0.009-0.039 0.003-0.061 0.004z"></path>
<path fill="#0e0e0e" style="fill: var(--color25, #0e0e0e)" d="M18.775 2.133c0.128-0.358 0.232-0.661 0.344-0.96 0.066-0.177 0.121-0.363 0.224-0.52 0.047-0.070 0.224-0.128 0.29-0.093 0.086 0.045 0.188 0.209 0.165 0.287-0.137 0.46-0.298 0.915-0.48 1.36-0.034 0.084-0.207 0.169-0.302 0.155s-0.167-0.154-0.241-0.229z"></path>
<path fill="#0d0d0d" style="fill: var(--color26, #0d0d0d)" d="M13.681 0.52c0.055 0.105 0.118 0.207 0.163 0.316 0.172 0.414 0.33 0.835 0.511 1.245 0.084 0.19-0.010 0.322-0.144 0.357-0.098 0.026-0.302-0.061-0.342-0.146-0.169-0.346-0.339-0.77-0.48-1.206l-0.021-0.073c-0.036-0.117 0.079-0.281 0.125-0.423z"></path>
<path fill="#0d0d0d" style="fill: var(--color26, #0d0d0d)" d="M21.229 3.558c-0.21-0.010-0.347-0.235-0.242-0.367 0.324-0.406 0.665-0.8 1.011-1.186 0.042-0.047 0.25-0.027 0.252-0.017 0.027 0.154 0.091 0.345 0.027 0.462-0.133 0.242-0.335 0.446-0.514 0.665-0.082 0.105-0.169 0.199-0.265 0.283l-0.002 0.002c-0.077 0.056-0.165 0.109-0.257 0.153l-0.010 0.005z"></path>
<path fill="#0c0c0c" style="fill: var(--color24, #0c0c0c)" d="M11.124 2.117c0.062 0.038 0.116 0.080 0.164 0.128l-0-0c0.278 0.316 0.555 0.634 0.819 0.962 0.064 0.083 0.103 0.188 0.105 0.302v0c0 0.196-0.221 0.309-0.353 0.172-0.367-0.382-0.719-0.78-1.050-1.194-0.132-0.17 0.033-0.385 0.315-0.37z"></path>
<path fill="#0e0e0e" style="fill: var(--color25, #0e0e0e)" d="M10.707 5.369c-0.006 0.242-0.187 0.363-0.373 0.267-0.423-0.22-0.847-0.444-1.259-0.688-0.076-0.045-0.151-0.252-0.121-0.284 0.084-0.088 0.262-0.203 0.335-0.168 0.457 0.22 0.896 0.475 1.336 0.726 0.051 0.031 0.067 0.118 0.081 0.148z"></path>
<path fill="#f8f8f8" style="fill: var(--color27, #f8f8f8)" d="M3.811 8.789c-0.78-0.044-1.21-0.576-1.149-1.432 0.036-0.557 0.639-1.076 1.228-1.054 0.716 0.026 1.299 0.634 1.252 1.307-0.050 0.724-0.605 1.222-1.331 1.179z"></path>
<path fill="#fbfbfb" style="fill: var(--color21, #fbfbfb)" d="M17.097 14.899c0 2.213-0.007 4.39 0.007 6.567 0.001 0.014 0.001 0.030 0.001 0.046 0 0.381-0.177 0.72-0.452 0.94l-0.002 0.002c-0.281-0.173-0.484-0.4-0.502-0.752-0.012-0.231-0.013-0.463-0.013-0.694 0-1.996 0-3.989 0-6.030-0.171 0.080-0.322 0.145-0.469 0.219-0.223 0.112-0.383 0.053-0.497-0.165s0.047-0.316 0.192-0.399c0.331-0.189 0.659-0.388 1.010-0.533 0.088-0.035 0.191-0.055 0.298-0.055 0.096 0 0.188 0.016 0.273 0.046l-0.006-0.002c0.324 0.121 0.624 0.313 0.932 0.48 0.166 0.090 0.273 0.209 0.165 0.413s-0.267 0.252-0.475 0.145c-0.148-0.077-0.3-0.148-0.46-0.226z"></path>
<path fill="#fdfdfd" style="fill: var(--color28, #fdfdfd)" d="M17.316 6.444c0.444 0.488 1.011 0.858 1.651 1.059l0.027 0.007c0.098 0.050 0.167 0.144 0.181 0.255l0 0.002c-0.031 1.063-0.877 2.682-2.026 3.071-0.514 0.172-0.998 0.132-1.437-0.162-1.048-0.703-1.562-1.723-1.713-2.976 1.256-0.047 2.34-0.481 3.317-1.256z"></path>
</symbol>
<symbol id="icon-Teamwork" viewBox="0 0 35 32">
<title>Teamwork</title>
<path fill="#030303" style="fill: var(--color7, #030303)" d="M27.896 32h-0.917c-0.031-0.023-0.067-0.042-0.106-0.054l-0.002-0.001c-1.156-0.114-2.21-0.461-3.145-0.992l0.039 0.020c-0.347-0.193-0.701-0.249-1.082-0.102-0.371 0.145-0.745 0.284-1.125 0.401-0.426 0.131-0.857 0.249-1.292 0.346-0.497 0.111-1 0.198-1.503 0.285-0.252 0.044-0.508 0.065-0.763 0.097h-1.399c-0.027-0.022-0.058-0.039-0.091-0.051l-0.002-0.001c-0.702-0.107-1.417-0.157-2.102-0.33-0.777-0.196-1.529-0.495-2.285-0.765-0.284-0.101-0.557-0.148-0.84-0.028-0.212 0.089-0.383 0.172-0.548 0.263l0.029-0.015c-0.697 0.386-1.425 0.676-2.22 0.791-0.241 0.035-0.483 0.089-0.724 0.137h-0.821c-0.045-0.019-0.1-0.038-0.156-0.052l-0.008-0.002c-0.55-0.097-1.113-0.145-1.646-0.303-0.563-0.17-1.051-0.382-1.507-0.642l0.036 0.019c-1.92-1.062-2.989-2.785-3.549-4.838-0.156-0.573-0.078-1.21-0.11-1.818-0.025-0.461 0.015-0.912 0.189-1.347 0.086-0.214 0.147-0.438 0.225-0.655 0.584-1.632 1.597-2.917 3.107-3.782 0.494-0.283 0.795-0.642 0.859-1.236 0.137-1.174 0.414-2.245 0.818-3.251l-0.030 0.085c0.531-1.382 1.294-2.622 2.258-3.747 0.769-0.898 1.674-1.634 2.62-2.329 0.161 0.493 0.325 0.986 0.483 1.48 0.148 0.464 0.29 0.93 0.431 1.395-0.221 0.199-0.446 0.393-0.662 0.597-1.684 1.598-2.672 3.558-3.057 5.859 2.695 0.231 4.892 1.322 6.264 3.714 1.367 2.383 1.265 4.821 0.048 7.262 2.52 0.939 5.025 0.953 7.528-0.018-1.207-2.456-1.314-4.896 0.053-7.278 1.373-2.394 3.584-3.468 6.267-3.696-0.051-0.237-0.094-0.456-0.145-0.676-0.471-1.986-1.377-3.727-2.885-5.128-0.246-0.229-0.503-0.447-0.754-0.67l0.968-2.841c0.193 0.145 0.386 0.285 0.577 0.429 1.087 0.821 2.017 1.773 2.79 2.846l0.027 0.039c0.599 0.829 1.116 1.777 1.507 2.789l0.029 0.086c0.367 0.947 0.646 2.050 0.787 3.196l0.007 0.068c0.037 0.302 0.097 0.59 0.415 0.767 1.485 0.832 2.634 1.974 3.292 3.575 0.397 0.965 0.701 1.946 0.624 3.008-0.015 0.216 0.008 0.434-0.006 0.651-0.007 0.188-0.036 0.366-0.087 0.535l0.004-0.015c-0.145 0.447-0.283 0.901-0.474 1.329-1.125 2.521-2.977 4.119-5.766 4.514-0.157 0.023-0.313 0.055-0.47 0.082zM27.454 29.104c2.26 0.034 4.344-1.819 4.347-4.357 0-2.466-1.925-4.352-4.366-4.365-2.417-0.012-4.396 1.964-4.392 4.339 0 2.455 1.941 4.383 4.411 4.383zM11.689 24.733c-0.019-2.413-1.988-4.366-4.392-4.356-2.447 0.009-4.385 1.979-4.353 4.454 0.032 2.454 2.049 4.392 4.642 4.274 2.194-0.098 4.102-2.016 4.103-4.372z"></path>
<path fill="#02ec6b" style="fill: var(--color29, #02ec6b)" d="M10.101 8.101c0.027-0.687-0.024-1.389 0.097-2.059 0.309-1.706 1.102-3.155 2.444-4.296 1.145-0.975 2.467-1.492 3.936-1.695 0.046-0.012 0.086-0.029 0.123-0.050l-0.003 0.001h1.303c0.309 0.059 0.62 0.112 0.927 0.179 2.124 0.46 3.696 1.675 4.778 3.539 0.738 1.272 0.992 2.663 0.945 4.119-0.003 0.088-0.004 0.177-0.007 0.265l-0.968 2.842c-0.067 0.065-0.156 0.118-0.199 0.196-0.464 0.851-1.118 1.529-1.917 2.063-1.618 1.082-3.386 1.619-5.332 1.268-1.988-0.361-3.632-1.325-4.825-2.987-0.125-0.173-0.258-0.338-0.386-0.51-0.145-0.465-0.284-0.931-0.431-1.395-0.159-0.496-0.323-0.988-0.484-1.481zM13.127 7.275c-0.201 2.336 1.918 4.334 4.203 4.358 2.351 0.025 4.329-2.018 4.322-4.307-0.007-2.446-2.084-4.311-4.229-4.339-2.218-0.029-4.5 1.923-4.297 4.287z"></path>
<path fill="#fbfbfb" style="fill: var(--color21, #fbfbfb)" d="M7.818 32c0.241-0.048 0.483-0.102 0.728-0.137 0.794-0.113 1.522-0.407 2.22-0.791 0.136-0.077 0.306-0.16 0.481-0.235l0.037-0.014c0.282-0.12 0.556-0.073 0.84 0.028 0.757 0.27 1.508 0.569 2.285 0.765 0.684 0.173 1.4 0.223 2.102 0.33 0.035 0.013 0.066 0.031 0.092 0.053l-0.001-0z"></path>
<path fill="#fbfbfb" style="fill: var(--color21, #fbfbfb)" d="M18.002 32c0.254-0.031 0.511-0.052 0.763-0.097 0.502-0.087 1.005-0.174 1.503-0.285 0.434-0.097 0.866-0.215 1.292-0.346 0.38-0.117 0.753-0.258 1.125-0.401 0.381-0.145 0.735-0.089 1.082 0.102 0.896 0.511 1.95 0.857 3.072 0.969l0.033 0.003c0.041 0.013 0.077 0.031 0.108 0.055l-0.001-0.001z"></path>
<path fill="#fdfdfd" style="fill: var(--color28, #fdfdfd)" d="M27.454 29.104c-2.471 0-4.411-1.928-4.413-4.383 0-2.375 1.979-4.351 4.392-4.339 2.441 0.013 4.368 1.899 4.366 4.365 0 2.538-2.085 4.391-4.345 4.357z"></path>
<path fill="#fdfdfd" style="fill: var(--color28, #fdfdfd)" d="M11.689 24.733c0 2.357-1.909 4.273-4.103 4.371-2.593 0.117-4.61-1.82-4.642-4.274-0.033-2.473 1.906-4.445 4.353-4.454 2.403-0.008 4.373 1.945 4.392 4.357z"></path>
<path fill="#fdfefe" style="fill: var(--color30, #fdfefe)" d="M13.127 7.275c-0.203-2.365 2.079-4.317 4.296-4.287 2.145 0.028 4.221 1.893 4.229 4.339 0.007 2.288-1.972 4.331-4.322 4.307-2.284-0.024-4.402-2.023-4.202-4.358z"></path>
</symbol>
</defs>
</svg>
